<mxfile host="app.diagrams.net" agent="Mozilla/5.0 (Windows NT 10.0; Win64; x64) AppleWebKit/537.36 (KHTML, like Gecko) Chrome/136.0.0.0 Safari/537.36" version="27.1.1">
  <diagram name="PaginÄƒ-1" id="oWkMnpekFRb4mHPBdVuD">
    <mxGraphModel dx="1042" dy="527" grid="1" gridSize="10" guides="1" tooltips="1" connect="1" arrows="1" fold="1" page="1" pageScale="1" pageWidth="827" pageHeight="1169" math="0" shadow="0">
      <root>
        <mxCell id="0" />
        <mxCell id="1" parent="0" />
        <mxCell id="cvCOtVNXX8auWttKCjAM-1" value="" style="rounded=0;whiteSpace=wrap;html=1;fillColor=#fff2cc;strokeColor=#d6b656;fillStyle=solid;dashed=1;dashPattern=8 8;" parent="1" vertex="1">
          <mxGeometry x="230.9968490315049" y="145" width="138" height="106" as="geometry" />
        </mxCell>
        <mxCell id="cvCOtVNXX8auWttKCjAM-2" value="save/update&lt;br&gt;&amp;nbsp;the entity" style="rounded=0;whiteSpace=wrap;html=1;" parent="1" vertex="1">
          <mxGeometry x="242.2468490315049" y="156" width="113.75" height="37" as="geometry" />
        </mxCell>
        <mxCell id="cvCOtVNXX8auWttKCjAM-3" value="save the event &lt;br&gt;to the oubox table" style="rounded=0;whiteSpace=wrap;html=1;" parent="1" vertex="1">
          <mxGeometry x="242.2468490315049" y="203" width="112.75" height="39" as="geometry" />
        </mxCell>
        <mxCell id="cvCOtVNXX8auWttKCjAM-4" value="" style="rounded=0;whiteSpace=wrap;html=1;fillColor=#fff2cc;strokeColor=#d6b656;fillStyle=solid;dashed=1;dashPattern=8 8;" parent="1" vertex="1">
          <mxGeometry x="233.2468490315049" y="278.5" width="139" height="104.5" as="geometry" />
        </mxCell>
        <mxCell id="cvCOtVNXX8auWttKCjAM-5" value="read from outbox&lt;br&gt;and publish event" style="rounded=0;whiteSpace=wrap;html=1;" parent="1" vertex="1">
          <mxGeometry x="245.7468490315049" y="293.5" width="115.5" height="36.5" as="geometry" />
        </mxCell>
        <mxCell id="cvCOtVNXX8auWttKCjAM-6" value="update&lt;br&gt;the oubox table" style="rounded=0;whiteSpace=wrap;html=1;" parent="1" vertex="1">
          <mxGeometry x="245.7468490315049" y="338" width="115.5" height="34.5" as="geometry" />
        </mxCell>
        <mxCell id="cvCOtVNXX8auWttKCjAM-7" value="DB" style="shape=cylinder3;whiteSpace=wrap;html=1;boundedLbl=1;backgroundOutline=1;size=10.499987284342438;fillColor=#f5f5f5;fontColor=#333333;strokeColor=#666666;" parent="1" vertex="1">
          <mxGeometry x="485.9968490315049" y="203" width="61" height="84" as="geometry" />
        </mxCell>
        <mxCell id="cvCOtVNXX8auWttKCjAM-8" value="" style="image;aspect=fixed;html=1;points=[];align=center;fontSize=12;image=img/lib/azure2/general/Scheduler.svg;rotation=15;" parent="1" vertex="1">
          <mxGeometry x="209.9968490315049" y="276" width="34.5" height="34.5" as="geometry" />
        </mxCell>
        <mxCell id="cvCOtVNXX8auWttKCjAM-9" value="" style="shape=cylinder3;whiteSpace=wrap;html=1;boundedLbl=1;backgroundOutline=1;size=14.499969482421704;rotation=90;fillColor=#f5f5f5;fontColor=#333333;strokeColor=#666666;" parent="1" vertex="1">
          <mxGeometry x="494.7468490315049" y="310.75" width="50" height="111.5" as="geometry" />
        </mxCell>
        <mxCell id="cvCOtVNXX8auWttKCjAM-10" value="db transaction" style="text;html=1;align=center;verticalAlign=middle;resizable=0;points=[];autosize=1;strokeColor=none;fillColor=none;" parent="1" vertex="1">
          <mxGeometry x="253.4968490315049" y="130" width="93" height="26" as="geometry" />
        </mxCell>
        <mxCell id="cvCOtVNXX8auWttKCjAM-11" value="" style="endArrow=classic;html=1;rounded=0;exitX=1;exitY=0.5;exitDx=0;exitDy=0;entryX=0;entryY=0;entryDx=0;entryDy=26.24999364217122;entryPerimeter=0;" parent="1" source="cvCOtVNXX8auWttKCjAM-1" target="cvCOtVNXX8auWttKCjAM-7" edge="1">
          <mxGeometry width="50" height="50" relative="1" as="geometry">
            <mxPoint x="448.9968490315049" y="323" as="sourcePoint" />
            <mxPoint x="498.9968490315049" y="273" as="targetPoint" />
          </mxGeometry>
        </mxCell>
        <mxCell id="cvCOtVNXX8auWttKCjAM-12" value="" style="endArrow=classic;html=1;rounded=0;exitX=0.996;exitY=0.364;exitDx=0;exitDy=0;entryX=0;entryY=0;entryDx=0;entryDy=57.75000635782878;entryPerimeter=0;exitPerimeter=0;" parent="1" source="cvCOtVNXX8auWttKCjAM-4" target="cvCOtVNXX8auWttKCjAM-7" edge="1">
          <mxGeometry width="50" height="50" relative="1" as="geometry">
            <mxPoint x="395.9968490315049" y="456" as="sourcePoint" />
            <mxPoint x="445.9968490315049" y="406" as="targetPoint" />
          </mxGeometry>
        </mxCell>
        <mxCell id="cvCOtVNXX8auWttKCjAM-13" value="" style="endArrow=classic;html=1;rounded=0;exitX=1.005;exitY=0.6;exitDx=0;exitDy=0;entryX=0.5;entryY=1;entryDx=0;entryDy=0;entryPerimeter=0;exitPerimeter=0;" parent="1" source="cvCOtVNXX8auWttKCjAM-4" target="cvCOtVNXX8auWttKCjAM-9" edge="1">
          <mxGeometry width="50" height="50" relative="1" as="geometry">
            <mxPoint x="404.9968490315049" y="430" as="sourcePoint" />
            <mxPoint x="454.9968490315049" y="380" as="targetPoint" />
          </mxGeometry>
        </mxCell>
        <mxCell id="cvCOtVNXX8auWttKCjAM-14" value="Message&lt;br&gt;Broker" style="text;html=1;align=center;verticalAlign=middle;resizable=0;points=[];autosize=1;strokeColor=none;fillColor=none;" parent="1" vertex="1">
          <mxGeometry x="476.9968490315049" y="346" width="67" height="41" as="geometry" />
        </mxCell>
        <mxCell id="cvCOtVNXX8auWttKCjAM-33" value="&lt;font style=&quot;font-size: 13px;&quot;&gt;Spring Boot&lt;/font&gt;&lt;div&gt;&lt;font style=&quot;font-size: 13px;&quot;&gt;+ Eventuate Tram&lt;br&gt;App&lt;/font&gt;&lt;/div&gt;" style="rounded=0;whiteSpace=wrap;html=1;" parent="1" vertex="1">
          <mxGeometry x="240" y="600" width="130" height="83.68" as="geometry" />
        </mxCell>
        <mxCell id="cvCOtVNXX8auWttKCjAM-34" value="" style="shape=cylinder3;whiteSpace=wrap;html=1;boundedLbl=1;backgroundOutline=1;size=10.099975585937557;rotation=90;fillColor=#f5f5f5;fontColor=#333333;strokeColor=#666666;" parent="1" vertex="1">
          <mxGeometry x="565.0799999999999" y="733.2" width="40" height="107.22" as="geometry" />
        </mxCell>
        <mxCell id="cvCOtVNXX8auWttKCjAM-35" value="" style="endArrow=classic;html=1;rounded=0;exitX=0.923;exitY=-0.01;exitDx=0;exitDy=0;exitPerimeter=0;" parent="1" source="cvCOtVNXX8auWttKCjAM-40" edge="1">
          <mxGeometry width="50" height="50" relative="1" as="geometry">
            <mxPoint x="430" y="738" as="sourcePoint" />
            <mxPoint x="500" y="673" as="targetPoint" />
          </mxGeometry>
        </mxCell>
        <mxCell id="cvCOtVNXX8auWttKCjAM-36" value="update" style="edgeLabel;html=1;align=center;verticalAlign=middle;resizable=0;points=[];" parent="cvCOtVNXX8auWttKCjAM-35" vertex="1" connectable="0">
          <mxGeometry x="-0.1129" y="-1" relative="1" as="geometry">
            <mxPoint y="8" as="offset" />
          </mxGeometry>
        </mxCell>
        <mxCell id="cvCOtVNXX8auWttKCjAM-37" value="" style="endArrow=classic;html=1;rounded=0;" parent="1" edge="1">
          <mxGeometry width="50" height="50" relative="1" as="geometry">
            <mxPoint x="140" y="644.44" as="sourcePoint" />
            <mxPoint x="240" y="644.86" as="targetPoint" />
          </mxGeometry>
        </mxCell>
        <mxCell id="cvCOtVNXX8auWttKCjAM-38" value="http&amp;nbsp;&lt;br&gt;&amp;nbsp;POST&amp;nbsp;" style="edgeLabel;html=1;align=center;verticalAlign=middle;resizable=0;points=[];" parent="cvCOtVNXX8auWttKCjAM-37" vertex="1" connectable="0">
          <mxGeometry x="0.0566" y="2" relative="1" as="geometry">
            <mxPoint x="-3" y="1" as="offset" />
          </mxGeometry>
        </mxCell>
        <mxCell id="cvCOtVNXX8auWttKCjAM-39" value="&lt;font style=&quot;font-size: 10px;&quot;&gt;.bat&lt;/font&gt;" style="whiteSpace=wrap;html=1;shape=mxgraph.basic.document" parent="1" vertex="1">
          <mxGeometry x="120" y="624.1" width="30" height="40" as="geometry" />
        </mxCell>
        <mxCell id="cvCOtVNXX8auWttKCjAM-40" value="&lt;span style=&quot;text-wrap-mode: nowrap;&quot;&gt;&lt;font style=&quot;font-size: 13px;&quot;&gt;&lt;br&gt;CDC&lt;br&gt;Service&lt;/font&gt;&lt;/span&gt;" style="rounded=0;whiteSpace=wrap;html=1;" parent="1" vertex="1">
          <mxGeometry x="300" y="747.69" width="130" height="80.12" as="geometry" />
        </mxCell>
        <mxCell id="cvCOtVNXX8auWttKCjAM-41" value="" style="endArrow=classic;html=1;rounded=0;exitX=0.145;exitY=1;exitDx=0;exitDy=-1.9305729457310272;exitPerimeter=0;dashed=1;entryX=0.734;entryY=-0.02;entryDx=0;entryDy=0;entryPerimeter=0;" parent="1" source="cvCOtVNXX8auWttKCjAM-45" target="cvCOtVNXX8auWttKCjAM-40" edge="1">
          <mxGeometry width="50" height="50" relative="1" as="geometry">
            <mxPoint x="478.0475000000001" y="667.889427054269" as="sourcePoint" />
            <mxPoint x="390" y="745" as="targetPoint" />
          </mxGeometry>
        </mxCell>
        <mxCell id="cvCOtVNXX8auWttKCjAM-42" value="WAL" style="edgeLabel;html=1;align=center;verticalAlign=middle;resizable=0;points=[];" parent="cvCOtVNXX8auWttKCjAM-41" vertex="1" connectable="0">
          <mxGeometry x="-0.0221" y="-2" relative="1" as="geometry">
            <mxPoint x="10" y="-12" as="offset" />
          </mxGeometry>
        </mxCell>
        <mxCell id="cvCOtVNXX8auWttKCjAM-43" style="edgeStyle=orthogonalEdgeStyle;rounded=0;orthogonalLoop=1;jettySize=auto;html=1;entryX=0.5;entryY=1;entryDx=0;entryDy=0;entryPerimeter=0;" parent="1" source="cvCOtVNXX8auWttKCjAM-40" target="cvCOtVNXX8auWttKCjAM-34" edge="1">
          <mxGeometry relative="1" as="geometry" />
        </mxCell>
        <mxCell id="cvCOtVNXX8auWttKCjAM-44" value="&amp;nbsp;publish&amp;nbsp;" style="edgeLabel;html=1;align=center;verticalAlign=middle;resizable=0;points=[];" parent="cvCOtVNXX8auWttKCjAM-43" vertex="1" connectable="0">
          <mxGeometry x="-0.0752" relative="1" as="geometry">
            <mxPoint as="offset" />
          </mxGeometry>
        </mxCell>
        <mxCell id="cvCOtVNXX8auWttKCjAM-45" value="" style="shape=cylinder3;whiteSpace=wrap;html=1;boundedLbl=1;backgroundOutline=1;size=6.657148088727681;fillColor=#f5f5f5;fontColor=#333333;strokeColor=#666666;" parent="1" vertex="1">
          <mxGeometry x="470" y="600" width="60" height="69.66" as="geometry" />
        </mxCell>
        <mxCell id="cvCOtVNXX8auWttKCjAM-46" value="" style="shape=image;verticalLabelPosition=bottom;labelBackgroundColor=default;verticalAlign=top;aspect=fixed;imageAspect=0;image=data:image/png,iVBORw0KGgoAAAANSUhEUgAAAPgAAAEACAYAAACeZ7vLAAAABGdBTUEAALGPC/xhBQAAACBjSFJNAAB6JgAAgIQAAPoAAACA6AAAdTAAAOpgAAA6mAAAF3CculE8AAAAB3RJTUUH5QUcBzYI2vpIBAAAAAZiS0dEAAAAAAAA+UO7fwAAVANJREFUeNrtXQl4TVfXvq2W0lZnql+rtFo6T+hkVkO1qFZLS5VWW/M81lhqnqckCDETIYbEGCJEImYighhCSAiSIGJIwv73u3Pijzhr3yH33pxz71nPs/6/nyT3nmGvvdfwrneZTIYYog15mGsRrs9wLc71Fa6vcX2b6ydcm3D9TdEJXKdaoFO4DlD+pinX8srnleH6MtdiXJ/i+pjx+A0xxL7yHNdyXD/n+g3X5lz7c53OdTXX3VxPcM3kyuyod7ie47qDqz/XSVy7c23EtQrX97m+xPUh4xUZokcpwfVVC/RJO34njKUk12pcW3H9h6s3101cD3O9amcjtkVvcz3JNYzrIq4DFa+hAtfnFQ/DkHyUQorr9baiVbk2JrSOslPj98q6mIv2qGKgX3FtxnWQ4tJi0fpy3ch1ixkNVk5RX0Xh7g7m2lf5zK+5fsi1lOQ6nuBakWsbrjOUz4QxX3TAqewIzT7p93Jdx3W0sm6eMkzNsfKG4tL1UGIsLMSDXKOVHfiUong5iYQmcD2d43fxt1FcA7n6cO3D9Q+uNZVYsICGn0dhru9x7crVj+s+xbWN53qJ63Wut7jezePplsY1VfnM7OeH79nPdSXXIVxbKkaADSWcaxzXZK4ZOjBoc3pTue8DivdRR3n2htjgzhVREi0w5u+4jlROllRlod510ku9m0N3cV2sxIkNFA+gpBJLFnaSC1dIeS4w6L+UDemKE5+Hpc+MuYHiPmO5DlXyCHDjHzHMl5aCikHXVYxotbJjanlHh+cwh2s/rj9xrcz1da6P23nDQ7a3EtcOXAOU05S5mxYuXJg999xz7IUXXmDFihVjpUqVYm+//fZ9+vrrr7PixYuL34E+++yzrGDBgo6+NmyyS7i2UBKHBQ1z/n95QYnphiixToJOF2Ca4rLiVB2nxJ41lVPe1owssrmtlU0kRnGVXdaAH374YVa6dGn24Ycfspo1a7KmTZuyli1bsj59+rCBAweysWPHMm9vbzZ79mw2Z84ctnLlShYcHHyfBgYGsrlz54rfgc6YMYONHDlS/H2HDh1YixYt2DfffMMqVKjAXnvtNfbYY4/Zew1sUnIVH7j7if4i1z+VUsVxnSRerEnQYFc/wnWzUvr5VUnoWfLSsSn05LpWiXldzpgfeugh9uabb7I6deqw9u3bs2nTpjFfX1+2ZcsWtmvXLnbkyBEWHx/PLl68yDIyMpg9JDU1lSUmJrITJ06wvXv3spCQEObv788mT57M2rZtyypVqsSeeeYZexn6TiUx97a7ZeCfU3a4Y1yTXMywKc1QDBVJwCCuvZVwJLfAte+sZG6vOjqehTtbvnx59vHHH7OXXnrJoc8AbvL777/PWrduzaZMmSIM7OTJk8KIU1JSWHp6OssvuX37NktOTmZnz54VG8uaNWtYz549hSeRx/u+oSRwB7h69r2gUlL5WymV3LH1oRUoUIA98cQT7Pnnn2f/+9//hJtVrlw5sUh/+ukn9uuvv7J+/fqxSZMmiYWkpuPGjWOdOnUSv9usWTNWuXJl9tZbb4kFX7JkSVaiRAkRu+F7HnnkEUclaNKVDHQ/pZz0A9c9tho14lPEnIhLy5Ytyxo3bsz69+/PZs6cyYKCglhERAS7fv06u3Pnzj29e/fufZrzZ/hd/E1AQADz9PRkw4cPFy7zF198IZ4Tnj2+T83FLVKkiHiGn3zyCWvTpo04mS9cuHDfd2ldsq8zISFBhAPff/+9CB+KFi0q1qAN7/uMEqMXczXX/XnFFQ9TFrXVBo2EyjvvvCPiMhjlsGHD2KJFi1h4eDg7d+6cWJD2ELzMqKgoEcvhpf7333/ixGnYsCGrUqUKe/fdd9krr7xi77iNKWUsqzY9xKvYhHDK1KtXj/Xt25ctW7aMHTt2jN26dcuhix/GGhYWxvz8/MRJV79+ffbZZ5+Jd1S7dm0R727evJlduXKFuZLExMSwCRMmiIME91qoUCFbXHckj7/lWlTvho1dChjiaVyvWbvoX375Zfbtt9+yAQMGMB8fHxEvwQDtZczWunCnTp1i27ZtE4t69OjRrGvXrqxBgwbCwOwUt1ns6sKt/vPPP9n06dPFKXv16tV8Xfg3btxghw8fFu8IMa6rC5731q1b2ZAhQ8Sh8/jjj1v7HpFzGkuEabqJsxFLRlhzauNB1a1bV7iD69evFzGavRIs9pabN28Ko9+5c6fI3I4fP154FwgXHHDCs6eeekp4El5eXmzPnj3s8uXLzJD8FazN6Ohoka2HF/P0009bm5fZoJzmBfXmkgPamGJpPIn4sVWrVuIEQNIFJ4Ie4rScArf40qVLYlOC0SPWx0u3YXd/4NmgtIM4+vz58/majMoXt/jsJXbo1HkWvP8E8wuJZN5rdrGh8zezf+cGmdX/FmwWfwPdfiiWRZ9OZJdSrtv9GvFO8G7Wrl0rSnAIn6yotgAs00sPLjsw0B9xjbTEsLFwkdhCIgiut94M2pIkTXbCCi8eLj2STshWmzP6Rx99VIA1GjVqJE5rV3s22ZKZeYddunKdxSWmsIjoODZv415uvJvYX+OWs7q9vVmFNpOFlr9PJ7Hyf09in1ig+L2cf5v9eZU7e7IWI3zZgNkb2Hz+nVsPnmJn+DXgWq7fvM3u5OF5430j/4C8CEI3C439rnKaf6xVWDTKO98rmULpzSArjQTFP//8I9wbdxIknUJDQ9ngwYNFMuqNN964z51HbRiJsx9++EG4/QgD7CFYsKk3bokFfCohyawmJqeylNQb/G/yttjNPo/rN9mc9XvYT/8uYBXaTrbIaB2llTp5sNZjl7FxS7exNRFH2P7j8ewCfw7pmbblfFD6A8imatWq4jCz8EQ/pCA5H9eScaNBv62SOJCe3CirwN1EltpuCY+0Wyz+8lW2N+Yc2330LNu09zgL3HFE6Kqww2KHnrlmp9DV4dH3fgbdsDuG7Tl2lh04kcBizyez85evsTS+gztDAOBYt24dGzp0qChpoeyEUh9c+zNnzth+KvITJOlqGos8eZ4F7IhmS4IPMK/VO9jIRVtY/1nr2d/jl5vVPjPWsiHcxR3F/8YrIIItCNrHAvizC43McnNhmPYyfHxW0J4YNmrxFvbdgLn5auQ5tWH/Oaz39LUiJNi874TY9Ky9ZcTohw4dElUFlF+tSMC15/q0FowbLYFdTFmdS9KSzkcffSSSEYixbXU5b2dkCkNct/Mom84XHuKsLlNXi0WJU+DHwfNZvT6zWa0eM4XW7D6dfdZ+6r2XVrP7jHs/g8INxN/8PHQh+2OMH2sz3p918whg/bnrNmvtbuYfGsXCD58WceCdO445yRC/AWCxceNGEbvbmlTEJgVDRNzZcfJK9vN/i9hXPWaIkymvi/1z/gy/4s8Oi/7X4YtZ56mr2ECfDXzjiBBGf9EOce017mHs5pvtMH79cKG1Yui492/6zmbtJq5gnnyjPBZ3kWVkZlpdZQCeoFatWpbg4nFInuf6r1Izzzd5WNlpksxBEpEZhztuS332VnqGePHj/bax30b6ikWGxYaFi3jKES8VcV5l/vnVu00Xm0D9fj7sF24wMPwZgTtZ2KHTLPnaDZbfkXEC9zh8txxkHSatFIuwahdPVrHdFKcsfDz7Lzt6sDq9vNn3A+exTlNWMZ91u8VmmCePjJ/oWw+cZL+PXsoqtp2iGUOHftlxGqv/j484BHYdOWuV+57JNwVAZJFzQsOMBSf5VSVZ/Xx+JdSamwNnoLQDxNi1a9csP6XTM8WJsIu72/24S1mF7+YVlORKfr/g7KSNSNbwmLHJkIXcld0kTvrDpy+ImO0aDxkyMh1Tq0/nHgw2lq0HTrEO/JTGgivfZrJmDADXAqOENzV1RbiIYxH347qtLkPezhBhVONB89mn7bRl6NkbHA6c9TuPscs8JLL0ncN73bBhg2h2sQARd1eBNr/oTOMuoNTuTstcckAmURtOS0uzePEeOZMo3MyW/MHldK31oLheGDyywP7bDomcwNmLV4QHkuckGQ8PzvHPwud2nRagKaOWKbwghD6LNu8XIURy6g2rY/ezF1NEKJadVdfaPWLzaTthhdiMElNSLb4/nOZWlFGXKm3ITpHPTFmEeHcp4wakc8GCBaJ7x5KkENy6Oet3sxYjlmhyt7blpX/LXTnEqhOXhYqcwcmEJG7smTbFpmv53yPXYI94On9O9kkigfYf3/zwLJAEtMbOkc1HwhBx8BcdpmnyHmvwcK7PzHUshIcXlm7qcXFxrEuXLgK3bwGUeaHSa+5QKa00tpPotDJlyog+XUtKPFdSbwoQAsoTcDf1btiUIk5FTIkEUlTsBYt3eZx6/3ivY1/3nuUSzwEncF1+L0gCIneAcMbijDR3gbFJjvXdqlkjz86+T/ALZReSrlnkrqOagj53C7r5ritGXsaRGfMBMjYR1LjRBALstvzGGHfHL7KeXmtEIksvLmdeFLEpcgrnLXjx6ZmZoqT3I49lK7Z1zWdTrasX3/T8+Il+jN24ZTk6D2XRFdujREVEq/eGDajVqKWiZGtJbA5PF3ZjwUl+UyH/eMHexv2QEndfp74cOFzgpM2VwJA82RZ5SiTPyru4Ued02VGDvnzlutlYO/Z8Ehs2f7OIX93h2WQnq+DapqRaBuyBB3Q07qJINGr5NMe1ISwBUu+uBac54MgvvviiJYk3kFoWsTf7SqTMuOFmoN4nE2QbAUesoqE6pzO07QR/lpBkvuMLoJvWY/zc6tncqzd3mCpq68Cdp1l4oidwbwgAGcS/Wr435A4OnkwQ+SZzgm5F9NtbkHhray8jR0lshAw3DXQawBqy3en0hWQ2kr+M6tw1c6eF+9vIJaI6YC6+RNb956GL3NK4c5bZGg+ez2av3S0qEJbkKnBoIEFbu+dMTd8bKiwbdh8zu3kBKwJ3HV2JZgwctOBN7EEeUUmGMUc/NPDVsj5tvISBPhsFMMKdFiySa9sOnpKGLTDutTuPsGbDFmui1q8FrdrFS1QNdhw+IxpSzEnazXSBH9eykWPzAhgJQClUEaT3k5bGFi5cKHoVJAaeqVSzauTFuJ9UMneqxPXolgE1kiyphhc0fEEw+8KFs+RUXXzW2l0i5yArEW7cEyNKSO6QaLQuKTlZVA981u2xGEexftcx9i03Ii3fF8LTaSvDRfOPOb6BJUuWmIvJYZcrbM2sA4r6i+IKqEJQwWcmA7JgcQO/626LF0m1IfOCWNK1NGlCDThu1MsNg5Y/S0BD0eVmLiMNRwmlRWSwtQZzzZ1YRLnvspmTHJ4fKKLAcWcm6TZUqXJZJSWU01v1g8FNBj40GeR0achBgY92pwWJl4e6PrK8MkHSpenQhYYRW/JM22Zl2lF2siQBt/fYOfbHaL98b0E1pygTI9dgTtq1a2fOyDEiqoq1cNTvlK4W1Q8FmbxMgCX/YdA8t4wfN3BXUSaohYPUwDBe6xRNP4AyA9lmTvbFxAtkpNbDuH+814sOSZmgA7NJkybmGH79TVYM2EAHy3zqwzAiBuydsgUMUIcrwE6t1UFzNkpPGfQ/j1gYrPnTRauKTsIJy0ItMnJUJrTuJSHxPJyvh4sSjAQ60UD4CUYgMxzs71lq4B/LJmrg9KagqIiTQA5QXeO1SUco0FUn4uVkiIs2H9B83VbrCkw+aubmstEos+06EidKVJpuyunsyTxE4u22tHyGCSxg/JEY+QRLUWtk3RvE9wcPHiQvBLFnIw0xczgzGQQIJQVmQFINZZ8f/51vGKmdnnfP6WuEeysDkCDxFh51moeL8zWd7MWmtTQkUtpjDqyJGVLHE8rYK6kUpTLnCPRHjBhBEjfgQaO1zx0XHNBKCZdptFrcxSui1dMwTvvqn2OXib5zGeNOFtbgKGvQb46m4dEoJQOymym5Fw8PDxkPP5iM25kz8O+o0/uDDz4QEy1kDCPuBkPNds3XRhwhTxK0D87dsEfTuGm9Gzm69MyhBZduOciqddE2khI5A5CHUBIbGytISyXgF1S+HpMZ+AKqU6x58+bSKRrgSXPHBYY6raxL7BR3I92xouBsIwccWo54u80mLQ/Vdmadhx5AfYK5hxJMtQEOhTDyUNnElJeUkbcP/CGCe3SL0cwbVwQ3l9tldXvMEEwrMtw0+sArGEg1hyPf+nqvk4KLBJttynXWZdpqTd8LwE9b9p8k72H16tWyOBxMS40oA8eQwGSqNEY1lABxg9P7SzeDoyJpg5bFqxLiApRq3O255GfiDZTP8ZflnXsgjgCVlFaTbsgTjF4SQsKc0fchoXpKVybWPqzWNealxtYCdwDuOSXg2mozwd/tFhTyDeDiIulyb6Wz3nzBGae3c40cxmEOJgzmVrCvaPU+QIYhY6gFBbOkXDZNbRTSq1xDKJ61FStWkF+2I/qMW5bGQKV8SQJQQCdZvT6zDMNzOprQU3Rt3ZZw4N28nc5mr9stmGW0eA/ojAuLOk1ef/fu3WUGjgaUUrkNvBbXo2p/8MQTT5DJNWSO0TXljhliTL2Q8XsPnhPklmg+reRG0H9trpcceHAtogpxTcjtUJUZjEWSGPguBax2n6B+dkXtDypVqkQ+JHCB95q+xi1LYzJivQju1bhj0lFLijbcY2flTT+nL6QISmYtXv8U/zBylBY4GCQGfjJ388ljykBy1T8YNGgQ+YAwDwwAAndbPIPnBpEuICZUglnTIHDI/yQokmmxZspnm/bGsM816IECqUe1lB49elTWfHJRGWJ4T0opfrvqH2CuEuWeL+duhLstHIQjiI8ophbwihl1b+28q1GLQ0TIRNbHb6WLcEprrnr7SSvEMAVVz+P0aUFRLjnFf8pp4BW47lf7xeeff15MYVAl5U+7JTKW7rZoWo7yFfOkKWYRcH4bsbe2qLNWbj8shleqlnm5AgmHkUtaum6MbYoj+sUxNEGCaGNKyfseX1s9Bcf6wC9Wq1aNJSQkkPG3O5bH0PlDcXmjHdTo9daeYoIsyC/vSrLqGDWtpax6Hg28f07W1R+pQYKdO3cmM+jo5HGVqRuW6td9ZrGtIFKUdNPpba6auzDtAJMgG7IQf+mqmLqiJYILJAHVJDExkTVo0EBm4IO5Pm5S/s8Q6hcnTpxIdo+h17a8my0UeCynzifR3T6rwg2D0rCRo/RE5U7wr9i8tcKThyQtVQW4dOmSYHmxxMCf5epNAVz8/f3JZnrUgd0L75yFkqKGy+F0MEgUta0oiclIOZBDGTJvk2ZIG4/F5d3AMbVkDZVgwyxjCu7nbr3fSNagr1jGQ2e0hGofyoqMuWzw4fFzl1jdXt6auFYKrmqNgYMBYq/aL7355ptk/zea0t0twdbsv0VSgryJy0M1TddrqHKKc+Ndb4YYE7TG+X2dGJRAtcBaY+CvKcgXVQTboUOHyBp48+FL3GZRADSBed8UNzf4tDAi2DAgfcTimJwSR5Q6RZaa/yy/+ytkWXQwrVauXNkiA39bIU9/4Jdq165NsqdiobvTQAO43t5rd0loes+5JaJPr4phhyiLUbVxxOKLN+/PVzyDuTLZu+++a5GBf0r90u+//y5cATVJSb3hVgsC9dGdR+JottRN+zXbmWQoTY+EOfVUyRPJuF/z0UsF8Oas7XXwAdl18J+pXwI1TFKSekno4IkEt1oM9Xg8dIWAO6IxX0Adjb5v3annqh3itKZ6CqauCGOftcsfXEOb8f4CTEZBVZEjkxj439lItpbUL/Xt25ccLOhuBg50Gt2RlMz+Hm+g13QJXOo9SwBcZIw8TfIJwtrTK5BsNomJiRFt3JZg0UkDHzJkCHnjoHd1p4WAnVxWHsNca8Ng9KleqyPogQPpGey/+ZvzpREF9XjKa0Q3mZn54fcMfIAtBo4EhDstgq0HaRK8FaFRrHInD8NYdKq1es6UnuLoHMyPscToeaDGYAUFBcmM+wzX6tkGPs0WA1/kRgaO2jbYONWnqGbwE2CHYSg6z6iDNJQanoBYvMOklU6vGs1Zv4dETc6fP98c4UNVw8AtTbD1mU3OjQInGwYtGoaiZ4zDJNZq9FJ27hI9ytefe2mfO7GJCIeKjHJqzJgxMgMHcK281MALFSrExo4daxj431mDDSgKW5RSMLvaMBS9U3BNZ8u2RpLrHYMOa/WY6bywgX/X9kOx5PX89ddfMgMP4lpOauDAoc+ePdswcK6Tlm8nSykHTiQIBkzDSPSPVBwwe4PAd1DSw9N53IM/Dl4g1hYl1atXlxk4xheVkBp4sWLF2Ny5cw0D57p8qzq7JboOQyNPuV3LrCu45GqYhUYD5rGIaBrMBJfZWdf457hl0q63smXLygzcIycvumHgMtxy28nkTgrSRVBGG0ajvY4xuNxgVf11+GLRIwB+s05TVgnt7hnA+s5cd+9/Q/Fz/N66XUdJqmLkW5yFVvzHex3JuQ9+hgIFCsgGEPbPycemauAYUQruZXc3cJRQos8kkv3fIxYF5+nzMR2lQT8f1mLEEtZ6jJ8AN/SduVboX3wXx6JrzhcpOqAMnjdJr0DHaazZsMXCcFFeAhkoBnKcSkgSxIUU5jwn9hwDJK+k3iTnzKHFFJuBM+5H8A4QeZ+oqCiZgYP6vK1ZAwcl68iRI93ewIEHxiwr1Rd+45ZIwFnzeTW6TReGjIGEwBIE7YkRHOqHTyeymHOXBDTx8tXrQuGigQIKhIChkbHMb2skG7l4izB4w6j/PxkFXv7AHdHsUOx5gfySzQrPi8DgAHhyxmaFcdOk7S1aZG744PdmDdwok2UpXDdqmF0K3+2bD1tskVF39wxk/qGHxOznc5euCoQS1Xoqm3EN+l9AYwP4ggZ81l0JJip18mD9Z60XDUAXuSsrm+5qL8HGgT5yx7POzJL2q/fp00c2PjiSa6WcBv67LQaO08QdFlIPbpiJBOAfMZIagg3ACZws2BwCwg8LoARcRHueLFjQyAFs2X+CNRmywG3c94r8Pn/i97t533HhVt91gmHnRrU5vE108Hy259g58hq+//57mYFvUUhcTGax6AMHDmSZmZlu3WyCCSUUyAWtfLnj6VajlrLJy7eLNkRrT2hbBRsQJq3AU3Dld1GZP98eXoHsrASQ4ugTHJRdjm9sWkYiJ1NTU2VtouB18OVa0CIDb9++PbtyRf1hRvOY0R0MHBBGCuSCsU3ZLjiSL3M37CX7dx0t8BJwrc4EYzhTq3edLhJPCJecfGjfl4gDSYSjqzYIPajDISIigr366quUgd/kOjL30ME6BuEDrUtDDpJuIBJfiINXhR0Whk2VV5wlyAnMCNgpBiO60jsAzzwWfYJk2CMlCI2Q84g8eZ5tizwluiBzK/4d5IZ4hzLedGcYOHILsyTMQUuXLmXFixenDDxJCbnvk/cpA69bty47fvw4mfD5sqPrJ3hQbqEk9cYtcaKkZ2ba1VABi7xkY+IIf4tSkavE5AARoZaNioKl8TZojjCqaKDPRsHIgkpIw/5zxKx29H/nVvw7JsH+yGNfJE1R2chUyZc4w8DhDW7ae5y8t3///Zc9/vjjlIGf41o5t4G/wTVR7Q9A6oaaG0W6+OsI1yZdxCB5c+ybVrt5fGNETI+a687oODY/aJ+YuAFSAcTwSNphF6/U0UP8N05jlOLAQY96/FUJ3W+2oGni5/8WuUbczZ9B8P4TUrccho+qRPC+E4J4A2AUnPq2Muz4Bh9kmSousjMMHEyqCUTVJiMjgzVt2lSGYDvK9YXcBv4qNXiwZMmSLCQkhEw4YGG6OtsHJl3YIzmD+vbBkwliMCG6z2yJlbHhwNhRF6faCHMScrjCKd7dI0DugqdnioRvr+lrVZJyHgIg9F3/ufcUm6i57wwMj1ateDjDwOFBUAIWlypVqsgMfJVJRTD4YK3aHzz55JNszZo1ZJnGGUV/PRs4jBDG6BcSKcAYaDu1x3VhNDHiflm8iIWPKah6fv5fci8Go5hlzxfuNMqE2b3awAU0G7ZINI7M27CXrdt5lIUfPnNPF3CPCTDQryR5iv3H40nuPVRIHHnP45ZuI+8XJA/lypUzN3DwAXmGqyf1R3PmzFEtlcEtWs0XmWHgagsvUyyS8fxlIQa0hu0F7jniwWwFFXPuYYZolsBguhXbo8gMPwThhZ4HIbbh7jY11xsHDGrSiJth3IjV8Ux81u8WmwJcdsqtT752g01cFirwCmohAbWpoFKBjcOR97xlP80c5OnpyYoWLSoz8NpqBi4dPjhixAh244Z6Cx0yk4aBP4gPwAkBw/zcCpQZmiO81+wU5Ufgp08qiuQSXPuVYVHCC6ikbBYwcgAiqNNGjHfmcX7rsct0+/yXBB8QOQs1QQ6j67SAeyc3ngticIwBtkSQyFJr88V7o8YFIXeCd+DIeyaZe2/eFCSoEoAL9Ek1A3+IaxNqfDCC+suX1dvWsBBdte5qjYHDVcRII+DEAcawNrmDmWdALsmAMYgJ4XYD5NFnxlrBLoLFjc4oinkTpzuSc9gM9MeiM0tsbCTgJOLofUSIiF0tLVPCw5oZuFOVggkNK9R4KpSGmw51XPLytxG+5BoATXKjRo1kxh2h2LKq1OV6Se0Pa9asyc6fV3dZUCL61YXHF5kzcLiJIOtDY0BepooCp36RaA1UE2TSh8wLEkk0uJlgdZVBK6vrcCBD6zHLSEND7qHdxBUPJCCppqDc72wHj8XRwacKTfaiocnYSOs4cCghiEUoOPOOHTvMxd9jZAb+OdfDan/4yiuvsFOnTpE72uA5G93WwHHCoL0zr3gAwFtlrJ7qVM1x91zM/xZsJmvE6FDT48w0xLpUPzQMMHc2HBxmcJ+Pn7ssxfxjxFQbCYf98IXBpJuMd+TIHvZtfK2pvcY73DPx8/NjhQsXlhl4E5NEMJ8smGob3blzJ7mTujKjqDkDB5DCXuiljXtirGqc2HUkTvSqZ7v41KJGQmmQj/424XFLt5I9AAeOq/dBIIPedqK/aB3N/bcAAKHyYM7jnMVDGoRCarJHgSY7QgHEoSaJAn+ODjKJcV/m+p7MwEsoPE6qH+Dr60u6O6tcOJNuzsCt7QU3V/o6I5l2mVPSbt4W7lzFHDHoiXOXSUDStJXhunv2oAymNi1ZqzLicng2f4zxYyMXBbO5/HMwxx6grK96zJDmI3CKojJB7bOObJHu6bWGXbqq7rEgRK5WrZrMwNFB9rLMwB9SphGqThnt1KkTudiAxvomH0jhnaE4GQEYoWSyv/1qoijzoJ6LLjSK4BELD17TvI17HwCxYPFRErjjiO6SoQs37SPvx9tCmixsgJ/x52TpVJKv+8wSbjIlKK05qsEE74967xjhLWFwYUqDyZMmM9KB6zUKk04JyjqummiDEcFDocTeQB9kdVH7RnkICSNQBMGokfUFEg6ZdnRUqWV/B83ZKHXnMYrW3QzcWm0yZKG07Oio+XNI0MrIHkeNGiUz7utcvzNZIN8rI08e+JCXXnqJ/HJk0u3pquqp2cRRSL4vOkwViTcYM7Dqnqt3CFgwQgZqugY43agSCxJPeuNuzw8DR2egLBPfaOBcx7AGTVxBxt+Qb775Rmbgu7h+YomBf8x1j9qHwD1AHY6qAY/hC9EdDRwnrVausz4/Bc4T7ZSYb9V12mrDwC3AvVMlMiTtLMGx2+Kej/fbRvYWgI8BMwokBj6XazFLDBy/tEHtQ0Dwtnw5PT4X+N5KLjp8T2bgm/ce18x1IrEEfjJKxvhu1RVsderKcBKGuzbiiEO+E8k4Ct9/Mj7JIQMm8d6QI6EkODhYVLIkBA99uT5siYEj0bZYLdEGeFy/fv3ohb7vhMsm2iYt2y4wyGoC3LCWWlvR5ijbhB1xAjlKRy7aQuLQdx2xf7kK2fWxfBMkGz32xDiE4BKh1anzSWQbbMeOHWUMqrFcG5qskD5cU9U+DHGALNH2i4v0H1vDyaYlAwd0Fa6erH20lo5GLAG0coFwl8FXVtHO87rRfy9jUkFHoL2HD8I9R98ClT2/ePEie/vtt2Xu+VaupawxcCTaLqp92FtvvcWSktR3GiB/2k7wNww8v3unPQNIPDbaVu3VruoM/WO0H3mywaNCU4g9vw8kEcip0AnVcLv311ft4iWt0qBVGwluwrjTuXpxfdQaA3+PyqSD/CE0NJS8mCHzNgm4oDsZeLgTKHStUWyySUTjCf690YC5unnuaDaJJNo2EZvbu6sLmIc1EXQsPGpxiN3XN+ruMogyusck8FT0jvxkslIKKbQvD3zgc889x3x8fKQZZT3FePYw8LjEFE1dK+K54wSiDagw9E7rhv+cGxNVG0Y5EEg3e1chQKJJcqHxA6yCncMClD4ptF5cXByrU6eOrD001lr3PFt81D7wscceY7169SLx0sDp1nLBMboyA8fMKy1dK+CuuySZdEeTFdhbATOlZorti4m364mK7jJ03lEC6Ku97w+JO0pWr17NSpcuLYu//WTdYzJpRX1ow4YN2dWr6i7F5SvXBWDeMPB8LJVxNxPE/JSgX11XfGyegYK5Vk3QSmrJ2Ch7Gbi9O/LA805VCdLT08VUIUl5jFmbPc8pn1Af+vnnnwtcLCVtXDDRpicDR6III6XIUtmmfbp69nV7e5NkFjAOe25Yzjbw/tybopCHsbGx4jCVGHcy12dtNfAnuN5S++DXX3+dBQYGOh26aRi45XErGFxI0vyQg7p7/hR4B7Hryu1RgjlVbwYOwNGG3cfIcHfLli2sRIkSMgP3tRTcQgFedql9MAjXp0yZQj4ErWWV3c3AoZ6rdpDvZ7cD+5kdhmhbEU7eD5pvGtspcehMAwdmhMKeg/8QPIgScAu0qa3xd7aBT6E+vFu3buz69eskuYCrlcpkBp5w+Zrmrhdzx68RcevhWP3Nk8NUEqq2D0YhjDQq32ayww0cs+fs8T34jGkrw0RPv2rzVnw8q1ixosy447m+Zcqj/EB9Qb169diJEyfI8oWrTTuRGTi4vbR2vWCZwUarJmcupOju+aPHIVLCjb5sWySr0T3vU1UBAgLk2tF1cMz+lm0kmzdvlhk3dCrXp/Nq4G9RveFly5Zl4eHhBHvIXf4gtriNgWsNyWbOwCF67MnHsAFKQCvddOhChyPZ7GXgXT0CyNFEkLZt28qMGzbZjGuBvBo4BojvUPuSIkWKMH9/f9UEgRiGEB5tGHg+auepq6QjjPX2/MF0A253aiYb6uRAUeYVRmrOwMGcm9duvOzJoVT2HK2hL7/8sszAw7h+YLKDYNqJB/VFQ4cOJYchYEBetS5eLmPgMwJ3sltE26IWDfxPbgw41VzFwAXjSd/ZUrcWCDR00+W1AjFJ4ilgWqnaJBTrgEjzRWJQhj03U/ueplS58iwFubanONrQWYZOF2rixJ86nqaRW5dJ6sqI2QwDd0KnHDcs8N9lErBOJOFa2oGxZjR3w6nS1d6Yc2JWWl46xzB0kkoYYnJogwYNZNBUJNd+NtlR6nC9oPZlL774oijGqzNf3BID1NyB8AE91oaBO6m7bIwfO37uEnlfK0Kj7MLFfo0IBUDllBfCB3i1mMZCCQYblCpVijLuuwqteUl7Gjg6y0Ipd4HqLMMOBQCCnofe5eTZDtgRrStgj6saePVu04WbTJ2AQLzlZbqMOcomtKhWyUMYgETglVR1aCqGew4YMEDgTAh7A/BsnMnOUpzrfMrAhw0bJmXxrN/PR/cGjhbCLRLaZBAsGAbu3AoBBV0FacLMNTvzSLoof3Z52UCmB0SQn3vy5ElWo0YNWex9nms1exv4I8rU0Qy1L0UrGyVoBHAFAghzgw+6apBNFjO7YiUMnXp+H0i2gbiCEtTL80JqgcGDspq7rbkljLai2Gkg8+fPZy+88ILMwDdzfczkAPlZCe4f+FI0oqPrhWLxHLFoiy6nWuZUwCBlWU8tbmKIIynSB0yi0fP7AAoMwwcoMkbEz/CqbO3bxuYg6wlH/7Ytn4vZcVRpLCUlhXXo0EGWXEP8/aPJQfKRjEo5KChISgCR19JFfmvLUb5i0gglIMrXE9DFkcPznKVoSZbV+UHIiOERtnx2ze4zxNxwe+ZcME4aDTNqyXlk7MPCwtibb74pO73juBZ1lIHjg1eplcsAhu/ZsyedFTx8RlcUQWraYdIKwdpCwXK1uIFhOiYFzNEjFl1NF22ixzSBH3Dw3CCbUWeyqsliG2aTgScPJJGq1FM3b7Lhw4ebg6aOyUvnmCUySuFffuDLq1Spwm7fVl9MGP2q93p4H+6SUafhuUtXxO6sve6rMOGKq8m2yFMuYeDoxrpObGLZFMfIn9jy2T7r95Asp9YCm1CFARsr5Z4nJCSwjz/+WGbcSVy/NDlYflII3h64gDJlyrDo6Ggy3kPsYW8mSmfqCH4aUi/naNxFzQ17MNcPjtPJFQwchrNqO81GipIWJrlUsKH7C2g2igcfc8us+Sy0mB47S9fu582bxx599FGZgS9VqlkOlRe5Hle7AGT+cJEyeF9VncJWkdABYIcS1MfzCl20t37FY0gZDe/sdbtdBoAE5BpVMsvmJgC+3JYQh6pXA6VpDU+9V0AESaqI2nfVqlVlxp3GtaVSzXK4rFS7iEKFCrHOnTsLmJ2agNcatDt6XEDmmg8w7lVrYB4kl2RTKv/xXu8yBo6EmH/oIRJaCuky1fp5bPgbasYbYmlL3/nPPIyQlfS2bdvGChYsKDPwbQrYzCnSjbqQ2rVrs7Nnz9q9dpjfinnastPQETzZeVX04scQLmEmDzUwsdRVDBzud8/pawSrjozBxloPUmbgSdfSBDGEJZRMGL1EhXc4EFu0aCFjbUHOa7BCY+4UKU8Z+DvvvMNCQkLIhzzLQZMgHQ6q+MdHJKX0ZOAdJq0kmToBtHA11lsgDcFtRiUVUS8fOm+T3QwcDDKW9J7Du5DNGd+zZ4/gN5Sc3lFcK5ucKIWVetwDF/Pkk08yDw8P8mb2xZzT5eIxR+EDd7dCm8mauV4kMwEuohb7Ln6a6TVckuVJ0KFFlaHgvu89dk5MSbEG6kvV2S01cFxTOnF6AxyG8rJkYkkm14WOQq5RgjrcAmrHARIHiBz1XTTdqgesFwPXWugBnm2QbZCMqlsOulSf/j13mG9sGL9LNaGAKGLc0q0Wo9swPILCo1ti4Nhoj0vw7Lt372YVKlSQnd7o4KxpcrKAiPE36qI+++wzFhkZSQJC9DZRwxID76exExzjm9HSSHX4uersOJF7GL5EmlE/eDLB4um3jQbOI8c/WWLggLNS01hu3bolGFMlpzd0nSmf5C2FcP2Bi3rqqacEGwVF44Q4SW+LBl6HDLaotRi8zXh/EqCB+Bs/d0XjztaAcHpw4O30TDZtZbho+nCkgaPysvXASTKzj6EhGB5iBrn2XX4Z+EvK7kK2j1I0TjhZcMLoacHU6DZdoJD0YuDgDCPx2Tz+bjxovksbODrBklNvSMkZmw9fLDjeHGXgOL2B4FTdZG7fZp6enqK0LDHuSHswpuZl4slQ6uLq16/PLl26RMJWe3gGulQdfLHG6uAxEsQUEGy2gD50RevE34Vsk0PyET83B04CcwzVfyAz8K96zGDrdx0jaaVAcVa9enVzp/efjsadm4vD4T6kUG768ePHSebL+Rv32oU43plZ6SkrwsgFA/cdkEktXOtvI33JmiuSTEBn6b1111KM+ikiD5E9zwzxupyVli6TwUPAIAa1bH6fmWvJbL4ARi1aZI5QcTfXMqZ8lo8oOmXonDlzyBuMiD6TZ0qd/JgSQsW1p88n54mjy26Aj7aTme+Wg4wCdAFNZQ/ecL1g1GX94lkNIyekGzMajChDxb+r/S0aW5BnouTatWvmmkpAydRTKUfnqyA+mEFdKFghKUFtsfOUVbpaMF2m0bs5Ejda2LAwuJ6KGeEuYpywJcklV1GcsGBApQQjg7pLwkUZD/5plckwyMMg9k6RxP9gbDEDS43g+rFJI9KB6xW1Cy1evLggb6fcdFDf6qm7DO6cDE/cZ+a6fL/GMb5byRnacEkHzwlyG+PODq3G+IaIvnAqFg+NPCViZrW/nyNpFwXOXy0ZiyQmJRcuXGA1a9aUMbZcV2CpRbRi4JW4HlK7WMQYa9euJW92w27b+3TzQ+v28mYhEtLF/B7HW6vnTMEZR5Vl4DXV7uXtVgaeDWHFKU6FLejxH6ICYQXv+ZqII1ZRM//DN/n0zEzyb7y9vdnzzz8vO733c/3EpCF5VimXPcDygl2qWbNm0gWnp4YHJE8WbNpHN+xz9z2/2mFR7unmEcDOXaLnXPms2+0WyTW1ZwO3mXK1sTxxGv+Qq3TY2MzkkdFLQh4YyCDr9z59+rQY1ik5vW9wHW6PWWP2loFKv6pq80liYiJ50//N1xcJRC9JxxIWUH656XAN/fmJQgkSTfaana1XDZZMC8XzgcF+1m7qfRn0eMlgwN9yTE9BchPsORkSzLmXlxd79tlnZaf3aS3F3jkFNDIJahddokQJtnz5cvIhoVaop5rs131mkXE4IKDrdh51OjcbTmVg4c8Q9VoIXHd3PL1zg19SCPIGMY6In9bf9Z97L1kGg6dgptjMq+Sg6Go0cC47coY+yDBiu27duubq3mNNGhWQMe61hQQCmOHvdEbGiEYNqpkBYUeHySudej2VeKwIIn3qmhAT2kJ24GqK6sHyrYekEFaw0FbkpzHidmzWlKAvIbsagVKZ56odJLUTMOdTp06VTSrJZkstadKwjKcuHogd7GCU6C2zC/7zG7fSyWaaJVsO3Le7OwMnD7YcGdGBnpKZjsyhtB7jJwgyZey/wDOALIMqiUJQrciGJoNO+/DpRDKJh8z5+++/b+70HqzF2Ds36OWO2sW/8sorUjd9m87cx4rtpgiSRUow0B1zuZ2F1Ju4bDvZ941THXmOiu2muL2BZ7XRegl6LfJ58Q26p9ca5rl6B5kcRta9xYgl93IfvsKju0v2oPft21fG1pJN6PC2SeMCMrho6ibQ1J6Wpt7Cdys9Q3eoNmRlqYRKNlWvM/regX+XTdkEwYYanNKdFR4YkIeUxPDnKZtJFrz/hPCI0B7cacoqdlFCE3Xq1ClzZTFkzntpqe4tI4EYRt0IivtHjx4lT5kp/mH6Ogn4zh15kp5bBRd+wrJQh5+cGJBHxd7IDKMt0hUmu9q1caiLl+gMpAAsMsFhBPcczxTgGNmsOgwyQP7JDOZ8C9d3TDoR8Ealqt0IygMAvaj2iCtxotZ4xc0hpACOkOGcsbM7us4vYxLFKdRa58MmHKWASSdISmCUIDRrqbxTEJfI3v+GDRtYyZIlZcadohCYPqoXA3+Vaxh1QwMHDiTddDzsv8Yt1x0JRJCEBCK7qaaOg9BjoEWmXEmBO484KtBYhkGrzAjjhwneHcVTTo0kXhC0T2TPEXvLOtXQDtq8eXNzpzcatV436UgQR/RXQ7VBwV6B8SxUiQK4Xz21kOJauwr0GJ2VRZyOVtLaPWfaf+7YgmCSNRX13r4awMZrWVuM8JWSQqiNwf6bH0LInsPQqRzMHR4yYQBIsWLFZMYNNqRf87Pf21b52pQ1oFz1xgICAsgHiKmLDfrpi8oXrrpXwA4xIlmGkkLtHCym9qoWIBu89SCNiz/GXUlXJ3Wwh3qt3mHRKZ59emNT7yjce7qEFhUVJeb0mSmLrdNCO6gt8oaMyqlly5bkgwHopf8sbZEXWuaqz2ab952QLhS0JYL1BVzk9jByhDMn42kXETPJDAO2rBFFhkDLlriLVwTUF1RjGDpIcq/fvMlGjx5tbsYYui8/N+lUCimA+XQKukph02EgqCkiQ623hQJcsqzRI9vIUWLJ6xxxUANPXr6dTPAAXqnFWeWaxDRwd7v/7A3k1NicybUqXTzFhBKq9VR4TseOsddee83c6e2lp8SamtTjekLt5rCzzZ07V+pa/mwhpa22FspkQRxwLe2WdKEg+QXaXtRi85Tc2xND176PxxulMSvLZvM27pXiGgBDDQiPNnva//XXX+aMG4M7KyqUZ9bIM0o57TMldm/Btb7SWvqYsw38ea4bqBbSWrVqkdh0GMCQuUG6HDOMdsGRi7ewazfkRo6yFjrSkFREzsFaNlbUvhOT1cEVcBzH+W1z+8YSWyoSwJffkQwvxAZwR4JYCwwMZEWLFpUZdwbXPrli74eV0/wxhcj0KaUaVZtrD66+CtItketlJTmXquhVU9bMcAxHCOD6C9dXnOUd9KRq4q+++irbsmUL3dUTc07Mc9JrQwOM/OKV68ySAgxQUyMWBbPveGxuyaYGttDxfvQYYwzEwzQOw2it17/HLxdstHfvWl0eZ2fOnGGffvqprNebKcQoTU1ZU0IrKriRHxRD9uC6nutJMx6AJR4CkHHlHG3g73KNVbuIIkWKsD59+ghuaCqG/FPHAI3KnT0F2onixFZtCDl2VrQnYkg8aqxUubBm9+kijqdk8z7HlOTcRQFeSTXjgT3gvl+/zvr37y/m8pkxvmtK6HrMRAwNsaOGKBuIw+aJw01YSl0AyghHjtB0OABp6BpIwY0cZZVMSVz3IBYgQ5wgaFNE+2H7SSvEaVwlR385srhUlxMgq4K0wIi/81T2nLVul8XvDDVvIDTLli3LHGywtihauJs40mVvRH35Cy+8INglKUFW8+s++m1xRIMH6vp3bfH3lNo5esuRvUXSDJ/lF3KQrd91lIwDUcpBfG4Yat4UHtDG3TEWvadz584JxFqBAgW0aOB3FH51h40eftxEjBlGrIKaOHplqYQGGiXK66wmjuRWXcGLHUO2ENoqeCZUY0l2LzNYSzBZFAqgC/D9nxqtolahEwHvxWx1WT94Ng2TBeOH7KawGUBfs9VMC2rO8cPLuJZ2VIfZP9SXv/TSS2zz5s3kKXcy/rKukG1YHLhejO3NsMI1t5cAtpqWg1UE2fywqFg2afl20fRSQ4f4AmeWOQF66TR5FT+9j0lr3dkCSvCmTZuyJ554wu7GDONFTI9mlXLlyrHy5cuzb7/9lrVp00aM58b/b9iwoRigADsy83m3ubbnWtARRv6xDLoqa0DBgkVMaeksZy0MKFwVdtiscQMMAc3MzHSa8QMlCBARkpfuNPjA0nwJZuWBH5CiXaLib+SRhg4dKowPcbgtxo6/efHFF4Wxfvnll+ynn35i7dq1Y8OHDxelN8wQp+b8obdj6dKloh3bTGNLsClrYKjd5QWuc6gvfuutt1hsbCxZWwQPuR7ohlC+8l6z06xxnz17ln3zzTeCgG/UqFFijjqFCbC3IGRA9xky/MZp/v9DJZHQjLehdfT/WWAyxXvduHEjmzVrFhs8eLA4ZUEZDppkvOuc2qJFC/Hz3r17s0mTJrHZs2czPz8/tmPHDnbgwAGWlJRk9eaPdYRJQmaIJT5zhIGDZ+o3ZWLDA1+M5AQ6byhBqQnsKVo3bo+V4WZRbGghbNWqlbhnxFMARXzwwQesa9euLDg4WOCYnSFIYHqtjnAqb5xWFcQP5t6b1QlS/h6Tk5PF6QpGl5MnT96n58+fFz9PTU213+bNN4SVK1cKT0Bi5B0clWx7U9aAAkI6JCyoU3zdzmMicaXVssrwBZulNW/cQ3x8PPv9999Z4cKFH7h/zKl65pln2LvvviuorbCbIzuLIXWYsY4FA8yAPU96ZOmnrgjX1ExzZw9pBGAo7WY6cxWBFwH3XmLgcx3J19abQrYBn+7j4yPFASNG0losDmjqoDkb2YVkebYVxt26dWtzHUYP6Ntvv81++eUXsTEMGTJETGu9c8e+ybte09fqJsdhT20zwV+UIS2tXsDrAUrwzt27mjVwAG66dOlibiSxw+RDijsd7mqdOnVYSoqEuP/AKU31N+PkA9e4jJwvO9OKROLTTz+dp6wqEjHg9zIXm4E4A9cUeyFZ8IdZQkHkbtBWNJf4bzskzZfA64JBA38AFtZ/5waxIfOCWHjUaXIEUn7L5cuXxUGSXwaONtJJpqzZx6ptpHBNZS5lx8naGTcMLuxoC/qIYdxPPfVUnowb2VEkbOCCSWP8lOts9rrdAuzSdqK/cEGxQGWGfos/V5/1u92qVt5m/HLBzkLWt/kmumnfcQFbxcSS7GeDTR1NKWN9twrw0Z07zjnNsRFdvX7LLElkTEyMOCgla2mTo/HpVZWuGNVF/PPPP4tElIzfTBNTRnvPkg6ly5aFCxeam0VlkQLWu2vXLunpDRcSw+5zDj/EwsTUGEBmZYwzh09fYL/osEXXtl76qWwC3/hkpzfYdwAJpkIXhGbwepD8xYTRvGTgqXe5LyZelO3GLt0mvidwxxFyjFJ2yQ5sSUCIStbSFEcbODCxS6gLePnll0VNjwK+4BQf5LMxXxcI+NtDD8VKEWUwRFQG0DVnprvILHIJIIc1a9ZIjftq2i0xqB4jdFRHG3XyYKvDosnnihzHqCUhbtFiis1ZBkNFyGJpsw42AJA31uoxg/0+2k8MmMAI6Z3RcYJSGx2FABup6Ylzl8XvreGGO2vtLjaOGzKGHWJDxveD9AQz7gDX9lm3h11JlVdYkJlv1KiRbL2hdfsnZ01AuU4tapziyCBTvc54cPmBUcfix/euCD0kdXmR7cZOiqmqeT25EbagRioTXIsl9ExfdZ8hPWlAZgCeb1c3cPQIUCN+0RiEWFsLlYUvOk4T01MQYllSIhs7dqy59XSOaxlnGDhO8QWyJpQVK1aQJxYSHFNXhpOnlSNRavM27iFnkmU/6G3btrGKFSvm2bgRt48cOVIMrqOBK3fY2p1HLeaT91i1g/ys6NOJAsfu6gaOdlzqHQJ73iyfQxXwEYIbAPmT0xeSzcfnGRkC7YYWbDNrapJCJuFwAVVNTSoWh3799dcCzUPJEUE+7+vUchimlFy+Ku/vxuSWr776Ks/GDU6vESNGiBq4TLC7W8O9BgOmFnfS1TTWbuIK124k4YoWXBnRSPb44PwiC0FiD9NS0iyAzMK4ly1bJtCgZtbUaYVGzWkUzaB0mkVdEIAfS5YskVLYLtsayWMf5xAbdPMIECUTaWIkOVnAEPPSNghkG0IUTMQwh3JCKQxjiq1xJ+v/48PiiBniSDoBa+DqBIv/LdhMPtPQyFj2bd/Z+UbaiaQa4nZLau3w7Hx9fQU4ykxXGWiipiqcbk4TnOLfcD1DXViZMmWkdXHAC7tzw3MkSAPdYc2HLyH5z3LWukG2Zw2QBS8FGxlmRuNegWA7dOgQu3r1qtlaN8phqMlaW9oCWSNccRr0ssblyRxQ4qIECS9nseHgWpBEQ8iADDmQkJkWgpiAcJw2bZoYrGDGuJFYC+f6gQ0kj3mWZxX62AwK3Qb0liwGxVRNcFU7yrgxIxosmrINFZtQx44d2WOPPSY1aBgz8gulS5cWrX+NGzdm48aNY/v37ydhuqqbyfWbov3TFtYW1HDjJdTO7m7gCzftv6/MaO/YGth/lN8QKnmsCmeRpxKsGoCIUhiw7ehnsPAgiXNW5pwSMEfGUBcIY5CRM2ZTO+WkNLInyyY62WT1UpzcILkvXry46vUD+I9xTd9//704ob29vUVTCRBHtgIe5m7YYzMl0wQJWaNh4EwMNEDfPHIuea+3TxHEoU2GLBBx/+A5QWwOf3fbo2JZihXjknKutdWrV4scj4Wl1yvKYMNC+WngjynF91vUqWcOwSVquIu32BWJhdge9EiychhOXfC7o3afO/uNJOGAAQNEjLRv3z6yl9caQUgC465pYykLoUaCGYYSdzdwNJ4cOJEg+uaHztvEOk5eyZoOWSim0VRXgUmjeoGf4TD4Y4yfYIHpN2udABwBLANuPSTuMLtONoVUJsAuHD9+XJCUlipVylLjBqHj0Pw27mwpK6OKxfB00OJQDKzwnlFOQCLMXq2fk/23m2XW3L59u3jgOa8Vfb4o8aEl0FwG3BpB/Xrs0q2qi8wShVsIFKCUDYZvIFjQrmzgeLczAndaZFRAk6EZ5djZiywq9oIwVFBi5VSMvMbPAFkG9BW/jyRZ2k37YdVnzJjBKleubA2RBIy7L9fntDIF5SHlgu5QaC5kCnfu3EkisZB1xIPGLOy8cLghTsLOLat1izLdkSOi0ys7WQZQCxB4cKPsxdICnDNOFLiNzYcvtsltBDgHbiJYZszFeucvX9Pd+GZbylArtx/WdMsn1jjyTiEhIYIlBpUVC09tJNQuKbZUVIvzzLbKbgAwPGr0cLZgV20+bLFNwwsR17bnLpY5yh6cztWrV7+XBceUFrjhdjFq/nIB5MFpELgjOk/jjbDRAfa4fNshi04UMZ99rGszssKllo18yk/BwQC4KTgK//77b1t6GCK5tnIU75o9yBm/UeB05E0gq24u4xwedcZqwwCLZg+vQGFYd830df/222+CRRO7Kji0wsLC8vxygTM+ePK8QKUBwYTETF7hkg14bIjyi6Xkj+5g4MiQH4u7pCnDBpnHwYMHRT4HGAgzo4/U9KYy5KCS1gcWAkY3QrlgMh5fvHix2YeG4QHo1bYk8YaXjomRwrgl9TCUw/7991/BvJI9nWX8+PE2sayk3botQgoY9PSACNZ/1gYxcNFeJRrgrQGasIbZ1R0MHHwClpI8OFLggqM8ivgaJVbE2DYYNvSiAkF9Rw8TSR9Sxh1tknVXvffeewLpZS6OwYtE1rmhhHYZyaeV26ME46iUROH2bTZ16tT7ymHYbEB0Z9EufTuDHeIGvWTLATZswWbBJgIjBE2vPaeQoDSDZCMSQtbSNruDgSMfYU3d2Z7uN4hFV61axfr16ydIN8HFhzVkIbe5Gtd5BNdmCir0IZNOBASNjamZZtlJrdq1awvUl7mpIWA3QYZ9ftA+1nLUUgE0qNPTW1AHzwiMEIvanCEAXIBafO5aNzq9ZOECrm3/iXg2gnsHjXgsjMVV2UFDCCryz0SnG7rKLIU6uqOBo6RFCU7U9u3bCwPctGmTMEjAhUHpjYoITl01hYuN34Hi9+HpgRkV5CUAMqGygoQsMBHw/gCIykMLMRLRaYqn67Qpoo6QvsqgNvJmYeR79uyxO0dZ7pMb3oIakAX/JgOsoHlj5pqd7MfB84VhOypphEELk/3DRK01L+IOBt5pyioahx4aKk7V3J2NyLNUqlRJ8OKBDim3guQQvwPF7+el/9/MiZ3AdbnSbv2QSedSVEYMka2gpwEpvKOSH6ChBeGC2kvDbmwOZZcNp0XttfPUVcLY88orhwkcDfr5iJo14vf9x+MtHncrY2Z1BwMf6LORfDb+/v6WTAjJD8VMcH8FclrU5EKCGcrR5h5AtWrVWFBQkF2NGy4Z6tqgc6ZiJGTSu3fvbhGOHE0EiSmpAhgBYgXMXAMba6vRSwXnF4gWyhOlLmwIP/47X/CsocEEBIChkadE77I1nGCgwhozZgx5ve5g4OCCpwSDMPPKnWdnRTu1H9cWXEuaXFBQOvuW62FzXVlIvGGiBDUCydqTG0QLwMGbS4C88cYbYnSs1d9xO0Mk9k4mJAk+NPBvhUWdfkDB4AnuNzS8gCUV6CpbBMlA4AjwnNzZRQd0lBJ0Z9mY8LKn3lXyT6O51lLi7IdMLiwAwPxuypptdleWXX/uuedEyyZwu9aWrpAQw8kWHR3NmjRpIlo4LXkh6P2uUKEC27p1q0NzAbYiorDhgfgRho1rBTGAOxt42KHT6v0M16+L5Fo+GHSGUhY+q7jhv3AtYcqayuvShp2b4qmVsrPdNffQgADCMLioqCjR5CEzdvwMrisYS9HthU3ClhcFVx4EFYCqakGwWSE3gcQQ0HamHHPg3NnAqVZZsAchg25y/KxucBFe4HqM6zauI7nWcbXY2lYjb20iZo2rneigPfrjjz+Yl5eXIEFExh2lEGhERITIjqO2jd7a119/3S4can379hUlElkPuyMFSTSUD+Fuqt2TOxs4OPyoEAcknz/++KM93ezrCioTOaQwroEK98EA5ZT+0Jn0SXoy8j8UQL3FDxx1R9SsP/30U/bFF18IRUkDMXZe6JUokgqMf4UHgbKLPXIClp7YaMbB9yLpSJFPuLOBA4twlZj5jYEBeG4qzwxtzBuVZNcG5b9z6nqu87l6KDqRaw+ufyt4jhoKm8pLhvla3j/eypLsugP0hlKysGjMEMANqJGC5IEaj5xXSUxMZIsWLRI984izzbUUurOB/z1uOTlyCFjw7O7AXAp3urmS7ALl8Bu5tIwSMz+r6FPuFDs7StAt8ynXABlu3c6x0ymuDZTN5awluYDsJBwwxtkeBHDHMEi48Ujs5JwcCsVJDFgjFP+d/e/4Hfwu/iY8PFywyMClRBYfM88s9UTc2cAH+mwg24CRg8lN3KHoEa7VDZPLH3mB679cT5iIXnI7xFI4sX1zgPkRJnzHdX9evxOZevS516hRg7Vs2ZL9+eefrEePHoLcAop4Hv+GHAEAPThhUHvPy3eWLVuWJKJwdQMHJzygy2oCaCrxzID3Lm+YWv5KTcUIE+xo3ClKzNXWpE43W0tpisnQIPKJVIxSOnz4sFsauG/wQdW+A3hLKCUSzyxcgYYaooHT/GeuMxR32tbT9Zpi2B2VGKuA5Dvf5jrO0sy+YeD5q8H7Tqg24SAEGjVqFPXM1nJ93TAv7SDf0Dr3GddBXIMszLgjjsfc5AlKnP2GyXKyuqeVvwFIIU3PBh5/6Qr7c6yfa04UbT9VtNCq9uanpbF27dpRz2y5kQHXphRWjL00168UVxuggtE5tJdSyijHtRjXJ2ysTRZQ3Pg6Sr3zhuK6380HI76jlHZiFTCFxQZ+LjGJtR7j65IGjo67I8QsdyQuf/31V8PADbHY2JGQG8x1uymLLTbFQUnAbE1X8g/g5PJR8gPwQCYbBp6lvw5fInD/aoKRUx9++KFh4IZYLfAIvuTahau3Es8h+w6E0/U8GPRN5TMOKB4DDPlHrq/l+n6rDPzshcus9eglLmngXaetJjnh0dNfsmRJw8ANyZM8wvVlrl9w/YFrGyVPAPgikFDrTFnIqM3KJoDTONj0/4ip1Vxnc+3Ptb0SWmDzKCFJBFpn4AmJ7I9Rrjk+eMjcIBKmCrCQZDOdrWzUhhhitaCm/pxipEBEvWnKGgKBsszHyn+/qWhpJU/wiBWfb5WBxyVc4Aa+yCUNfNKyUJIOGwMsTPKZ2oYYokkxDFxRkGRQ/H2Y92UYuCEub+DxFy6xP10wBq/U0YOtDqOnmfTv31/GgzbaWEaGaFWGWmPgN27eYl2mut5ssnp9ZospsZSgpdhEoxk7GcvIEK3KH9YYuKtOFwX/PGivKKlZs6Zh4IboUn7NvWhfeeUVtnfvXrcycAykPBFP01vnnhBrup/0sJWxjAzRjYEXK1ZM0AO7k4GjBp6YnEqi2CQ0XUADfmMsI0N0Y+Ag5gcdtDsZuOgDv63eBw7eOglVMtqQaxnLyBCtyg/ubuAY6TRhWSh5vytWrJCx4ABs9KGxjAzRqpS31sD/m785z2OLtaSYRTd3A51zmDJlCitcuDBl4OgwLGUsI0O0KmWtNXCwnnzZcZrLGHjtnjPZmogj5P327t37PlrpXBpiyuIANMQQfRg4+OEw05wSjPb5sqOHyxj4t31ns9BImvDyu+++k00zCTKWkCFaN/D72lSLFCnCBg0a5DYG/vPQhWJOPEU1XblyZcq4b3MdbywhQ7QsaB9NtMbAfdbtdtio4/zQFiOWkFzop0+fFvz4Jrol919jCRmiZcFEyqicCxcJJbC1UoLJpzW6TXcJ48a01nYT6Zo/6KfBMksYOPr1WxtLyBBdGTjizRYtWpCLPmhPDKvZfYZrlMjaTmFD5m2SzgMHss9Ew1SrGEvIEC1LcVPWaJ37Fm/jxo3dwsBBtDhrzS5pieyZZ56hDPyiyWByMUTjAtJJX2sMPCI6jtXp5e0SBo5y34bdx8h7RagiKZHFGsvHEK0LZmXNzb14v/32W4HBVpOT8UmitOQKBl61iyfZZILpr5I20Ww+dEMM0bSAS2xk7sVbtWpVchiiKxl49a5e7Gqaegb9woUL7IcffpAZ+ERj+RiidSnCdaA1Bp6SeoN913+uy4wLpiQyMlJWA4c2NZaPIVoXsK22yr14P/roIzFNU03AW9Z40HyXMPD2E1eQBh4cHCwmrUoM3GgyMUQX0siUa8IKppRu2bKFXPzNh7sGdfLMNTvJe1y2bBkrXry4LIP+jLF0DNGD1DVl1XTvLeDXX3+dBQYGkot/oM9GlzDw9buOkV6Kh4cHe+SRR2QJNoML3RBdCAYxRptydZT5+PiQBj56cYhLGPhJIoOOYYMDBgyQuefDTJYPnzTEkHyVd7mGmnLh0WUdZfM27tV/m2gvb5acqj7J5Ny5c+ynn36SGXh9rg8ZS8cQPUgpritzLuCHHnpI2nCyae9xF+BhCyAnmYBVVtJkcspIsBmiJwHYZXruhdyhQweWmqpORBhz9pLuDRxtr7fTM8lRRRIeNj+u/zOWjSF6EZTKBpiy5pXfW8hNmjQRrqqa3LydwT5tN0XXGHQMOrijMqooMzOTzZ8/XzZbvY8RfxuiN0Et/LIpF9glKiqKzDI36DdHtwb+4+D57Bj3QlSnt9y4wdq3b08Z+HlTVlnREEN0JbW5Hsu5mNEHDVdV3cAZ6+4ZqFsDHzRnI0u6mqZ6b1euXGGffPKJjIPtHWO5GKI3eZ3r1pyL+fHHH2erVq1yuUw62GiWbzuk6p5D4LU8+uijasaNEAb480eN5WKI3qQg10WmXPxs48aNE11Vqpnm2Au6ZFf9ffRS0j2HoHpAnN5nuTY2loohepV/uKbmXNTNmjVjly6pG8Nl7uJ28wjQlXF/3mEqm+C3jd1Kz1BPHt68yT744AM14waUF1iBksYyMUSvUkU5pe7DpFNdZRmZd5g/d3W/6KCfU7zRwLks8tR58vQODQ2lymO3uA4xlogheha0jm7PubALFSrEVq9eTRoE6uFwefVg3CjrjVocwtIzMsn76dy5MxV/J3N931gihuhdxphydZbBTacEp/istbt0EYvX6zOLXSAmiEL2799PuefQhVwfMZaHIXqXiqZcgBdoXFwcaRix55NZ6zF+rHwbLVMzebGtB06S94BEYo8ePYTHomLcN7hWNZaGIa4iMbkXec+ePZlM5m7Ywyp31uYwBHC4Tw+IYLduZ0j5z0FyQZze/iajNdQQF5KxuRc5mE2oZBvkYkoqazvBX3PGXa2rFxvvt40EtQgKqpQU1qtXL+r0BrqvoSkLzmuIIS4hlU1ZWeN7Cx3zsYcPHy49xQ+cSGDVNTTxBG755OXbWSLffO4SoJY7d+4IaqZXX32VOr3BOFvcWBKGuJK8zDXclKt9tHz58mznTpri6M6du2zZ1khNJNxq9ZjBVoUdZqk3bks3JcBSP//8c3F/KsZ9kuu3XB82loQhriRAtXXInWwDfVG3bt3YtWvXSINBf7XnqnBWpbOn0426QpvJYuJKd49AdvpCMjMnuA8J7znmjmGwoAFLNcQlBTROUbkXfqlSpQQ+PSODTlglXUtjHtzIa/Wc6ZTMOr4Dk1a6TF3NAndEmz21s+PuUaNGCeYak3pLKMY5vWosA0NcVUAC4ck1M7cB1KtXj505c0ZuQKk32JLgA4J33JHAFXz+sAWbBXniheRrzBLByT1t2jRWokQJ6vSO51rHWAKGuLIg7kRjxZncBoBsc9euXc0a0s3b6Wzf8XjWf/Z6u7nsOK0b9PNhA2ZvEPE+EntXiNneVMw9ZswYVrJkSSruxszvjiYD1GKIGwh4v/1MuTrMTEor6cKFC8ns9H1GxQ1wx+EzrLtngJgFVp7HyuZcd/wcv4e4Gu2drUYvZWN8Q9j2Q7Es/vJV8ZlA0VkjIHJAOUxCxQQEn5fJ4Ds3xI2kttopDsVQgCVLlogOLEsFYJPww6fZJP/t4hT+a9wy1mTIgnvabNgi0aE2YVkoWxpykB07e5FdS7vF8iIw7EOHDrFq1arJWFJRFsSUVaNbzBC3k3GUYZQpU0ac5OAR15qgxg1wDuifcZ2ES57tlq/g+p7xqg1xR8GQ+yOUkZcrV45NmDCBZGDND0lKSmJz5sxhDRs2ZEWLFpWd3CgFgjLa6BQzxK2lOderlKFgEgoSb8nJyflq2OfPn2ezZ89m9evXZy+++KLMsLM1iGs54/Ua4u7yFNehplwQ1pxauHBhVqtWLbZ161aLkm/2EHwPXHEMKujfv79o93z22Wdl7njOhBpaQF8zXq0hhmQJyP5nmLLaJ5nM0Bs1aiQw3jhRZaAYWwz66tWron0VsNkpU6aw2rVrW3JSZyvq+ie4/m3KIrgwxBBDckgprou53jZnTIh94Sp7e3uLdkwYZXp6ulUGjSEEiYmJLDo6Wowz9vX1FX3bX3zxhbnYWk2vcV3FtZ7JgKAaYggpHyrurUWGVbBgQfbOO++wxo0bs969e4tTF5l3GCw0LCyMHT9+/N7/hqL85unpyfr27ctatGjBatSowUqXLs0KFChgrVFnJ9L2ce1rMspghhhi8Um+UBaTy052wERB6Ah9//33WaVKle79b+j//vc/9vTTT9tizLk1wZTV3/4F18LGazPEEOti8oFcL9nBEO2tSaYsFtTyXIuajFG/hhhis4DHbZ1JUkZzgiLxB8rnEK5tuT5vvBZDDLGfFOPazZRFFJHsJKPGkAYAcDZyHcG1kuGGG2KIY+Vtru25LuF62qTSqJJHjVMMGk0hnbjWNGUh7QwxxBAnySNKfF6N61+KsUdzTbPSmAFGwcTTQK7jTVkjjqtzLcv1aeMxG2JI/gvqzS+YsrLuH3D9wZRFBzWN0OHKplDflNX8UZrri6asRJnBbOok+T/0jniKQ7c6HAAAACV0RVh0ZGF0ZTpjcmVhdGUAMjAyMS0wNS0yOFQwNzo1NDowOCswMDowMLQxxAcAAAAldEVYdGRhdGU6bW9kaWZ5ADIwMjEtMDUtMjhUMDc6NTQ6MDgrMDA6MDDFbHy7AAAAAElFTkSuQmCC;" parent="1" vertex="1">
          <mxGeometry x="482.81999999999994" y="628.64" width="34.36" height="35.46" as="geometry" />
        </mxCell>
        <mxCell id="cvCOtVNXX8auWttKCjAM-47" value="" style="shape=image;verticalLabelPosition=bottom;labelBackgroundColor=default;verticalAlign=top;aspect=fixed;imageAspect=0;image=data:image/png,iVBORw0KGgoAAAANSUhEUgAAAr4AAAFxCAMAAACiD1u7AAAABGdBTUEAALGPC/xhBQAAAAFzUkdCAK7OHOkAAAAgY0hSTQAAeiYAAICEAAD6AAAAgOgAAHUwAADqYAAAOpgAABdwnLpRPAAAADlQTFRF////AAAAAAAAAAAAAAAAAAAAAAAAAAAAAAAAAAAAAAAAAAAAAAAAAAAAAAAAAAAAAAAAAAAA////AuJdXgAAABF0Uk5TAAAwQCBggL/fz69QEI+f73CiEHkmAAAAAWJLR0QAiAUdSAAAAAlwSFlzAAALEwAACxMBAJqcGAAAHCRJREFUeNrtnW2DqjoMhO+KgiiC+///7D37DjppkwIN2Hm+nqOLzFDSNE3/+48QQgghhBBCCCGEEEIIIYQQQgghhBBCCCGEEEIIIYQQQgghhBBCCCGEEEIIIYQQQgghhBBCCCGEEEIIIYQQQgghhBBCCCGEEEIIIeSBNxOHqqqOto8UgLeGBaNU6Hiqm/P7D+2lvnbeptkO3hoWjEae6+3PuX+0NcfhL7w1LJioNscaeffbwSeOwW+0ryMRZY79e5ChpoFpXz+CusTM+2Vgb/e4461hwYRkuQ9x9/7jXHn7xxlvDQtGFuXYqMz7wa3sCMJbw4IRNbnqht7vOdzB20KeeGtYMJIktcG8HxHw1dtDjnhrWDCCIoo52wMnbxP54a1hwWBB7O4t2b/eGhYM1CPFvQX711vDgkFypLm3XP96a1gwQI17onvfh0LzD94aFsyzGFWqe9/fz2Xmf701LJgnLbpzun3fL95OcsFbw4J50uIyw72Fhr/eGhbMoxQzQofP8LfE8MFbw4J5lGJO6PBB7+0l2rckHpRIzjr8UuAWDG8NC+ZBiUCdztCfvhJj1T0UHxc4/HprWDBTIU6iK8+TSVlXyz4vb/j11rBgpkJIke9wf5Ssu3H4/cFbw4KZ6CClHWA5r1QQXF7ywVvDgpnoIBQ7tNiQB8G/xeV+vTUsmIkO2I+tJJvg3+KW3rw1LJixDFc8aZODgQMefr3tlBtvDQtmLAOejYX2EdfmT7wi3hoWzFiG1p5IgKmK0jo/eGtYMGMZ4FAaziPARHHj7afMeGtYMCMVYNoslsVFw+/g7afMeGtYMCMV4Ega20AB4+XCMr/eGhbMSIU6ZSCFyYfC5m7eGhbMSAU0kMbDWNqX9vVjpALqaRZPIqBP3aOfeim8NSyYiBHT7FtY5sxbw4KJGDEeBvS0r7eGBTNSIc2+F9rXW8OCGanA4CERbw0LZrYR0Uozp24kDyMVUN6XiTMF3hoWzEgFWD4Wk66ifWlfP0YqwHLfWNf0W4rnXwxvDQtmpAJc/41tnUAbLliyQzIxlgHZN7LvnQWTb7SvI2MZGrMXO7jbrbC8Ge3rx1gGvPUnFP3atxe9It4aFsxYBrzzMtAzHTflKS30pX39mOiAm+y0UvW5sNG4uDY73hoWzEQHofFTi6dvldCmpLgTCr01LJiJDsJw+j6gaFbqpXr2dlN2vDUsmKkQ4incT4duH8T/asw7dFV9a5r23zPSNJf6tMdpn7eGBTMVQm6QOtzGEUQVOPrNsk/z2j+H2819b+dreWtYMA9KhM4GaG/X6vh2qE596H/pJ25VLzUJPt931STYW8OCeVDi+j6TQWu8U/gUjX5HQ7C3hgXzKEWjtKmEMvI9xY+AuexmBPbWsGAepTgoLBpAd67moVV92W0n7U68NSyYJy1qlbMkNIkD+VyBp4dhH3kIbw0L5lkM3cgojJcKsZVDr/4L3fHWsGCexTgOBntNaRVan2xf3+wggPDWsGCAGsnZB82hLOZzD9vtpyC8NSwYJMfJarFv9yqM1q/ztbRvoUA91HOrCYp5VoJ7d+Bfbw0LZjmbKc7DSjwxeesnxXlrWDBLGU0zRCYGJYGK423grWHBiFazJQjOCvce0lMa266A99awYGSzxZd1/7gohsduTkJ50yd1emtYMAG7qSdwg6qnWdp88OdPbLkAwlvDggnJUukG4EZlrUr1XfIf8fYo7btFwsLU8XBVW5cwJ3T4YMM76Lw1LJiIMl0dHoFbbVCanHX4fUy8TUr7bhCF8S6So4ZeXxEWegrO/b36x6kOFhtvd/bmrWHBaOQ53i8D8NzVkI0NDL7jfRXdXbb5dodfbw0LRivRY97AGIqKrnzaUyEnnDc7/HprWDBaiR6r2G2F5FLaYQBPQScFK5tNPnhrWDB57CvUUAjte6QNH1vN/XprWDB57IsDArGUQYiUt3rii7eGBZPFvrgAPrCShkdrzWYO2rcostgXrxeHZn94kWOjhWfeGhZMFvtCMwZPzcD79Te68uatYcHksG+XMBGD4cNG9x17a1gwOewL02aREt4j+sxGU2feGhZMDvvCrRuxL0DZ340eO+CtYcHksC/K40aXgGHyzNuo3hyqU13XzT82GkcJ7Nq+qBInuv0HRg/7aBq1Cof7ZTwD3mgcJfBy9o13olzOvs0zW997/0D11FJ5Yt8T+IXelzzh5ewb/3zapxB7H8ZRN9mJPVF05n3RE2jfYu2Lt2zRvrTvDuiEaifal/bdPkdpiyDt62rfeO05qlIrzb5yZxfa19W+0bwlXGkuzL6dvHWK9rXY9/AYglmOrkLhW7T4ERZZppWc7da+ga2rtK/WvhXeATxctBaGuydin4VTlrSbt1f7hvok0r4q+177UKeS802T/4cDaWTrRIf+bGK9+k7t24XuPO0bt++xjreJak/RNzos3o0UPcCSh8RGkzu1b7DJMu0bs+9R2aR6qGMGhsNIcPjFk5bEzW77tG9w8KV9I/bVmldjYLj1Pdg0Em82TqxU2Kd9w221aN+QffXdUb+9GBwY8RwkUFWC+0Kklvvu077SgsX59tFSa/Ik075TrvZG6KEDrISjtsRQVsjWp/ZY36V98Q6r9wZdOe07uXNiU74gUg1kJ4Yhgh+ltabUnZq7tC9+5PFLjvYdYToWYDIywAg41CO4R5+ohA8k9+jbpX1h9H/X/1/v65+Q0b4zOvGC44UiHdqfm1vLUXe8wl1gl/ZFS0XSbIH2/SXp5MBfHipxjk30E9NgrguM1cktznZp39Zw1bTvD/PcO/WvMn1xvn3Lcgwu8aUfjrVL+6IbJf1f2vebue4d+/duSF8MTRMbqNP7S76KfcUqPdr3k1lHr/3wPUpWS3yXRrskJ2zevihvJubWad9P4pGqho/x95iWe5OZc67xHu1bWS6a9v1gfuTw7d+unv8lD8zpzkf7epPDvonnvQNSE8cyl+Q790b7+pPBvjOPvVyV86zOvjnt21XfzGyEsl37Hn5+oWEuvb59u/Tz3ldnmOeFTPat6kkbp/dzU6f/mS3at7vWzcQlbX/XKbO+fZeZtq3DzCOxMtj3eBfmqpfEa9+cfQ83nEo69woHr27f5QJfmfM1LZk290A3k32l5GEocXcKPfvDbfyWBf9zvBiuvicz6n2FiqhQ/XXouMh/uo4Fgs/d2vZVhg5t0zSpQcZHSXBSYnn2cYTohor/WRhF5TW/2LHP75PKJH/7SvV88m2O71wYGdjFvvGcWVtXPyIcrjd7buH2+ekE/84/TBPdUOn/CjdCdm+teZz/qvnd7SspIN5m3bab9ueOetg3lnU4P+2JP/SmUbj5+by1lnhY4ChYdEOF/ypUaYjurbTP8c8N8Lav2b2qx3P0MzzsG563neFv69Q/7F/QG7nX8ieXaMSLbij+n0KxqHR+ouVZHKpN2FdQWnLvwfC2/LpLDvYNDr6DWGerVO/xCyr9uN0vcpIbuqFLuNdY13/agH2FQECal9om9J9jjYN9Q4NvaA+bak/cswU75er0eaFz3NANRf9PeIol95rr+k/u9rVF9lqdfvnIz+e37yFwRZHx7xh7ueA2/JUmyxxtH7GwfQ+2k5cTKkROzvYVBlPJvfZp9tA52DcgRLRGPPwbz+KM4BS5N0O/3Pnx6Iaq3SulQ5Pqmw6u9hVeF4LG0ZEJ0XbZ7dvJV6PY4RDyb3D8rAIGON+XPL4Y3VDt75DWq9Oq886do32FdgVCNdQxLb/fZ7evHMOp9ucE/BsZQLsTnPvp+v4tbN8s7v13R/3sa4uNkncuoNTjqvYV8wfKho7yc6roSTatcxma22m5oMFiX5t70+uZwb3KY99M7oWsaV8xdhi0RrpK36BuaGquwFvavsJoKrh3Ri8BQBb7dqvPSwOsaV9RC30/R3H8XjKCXdO+glrCxPOwbG1pDvsKo6nk3oULuNa0r/SgGXpBH6XrXmDFN4d977arX3gTagb7GiP7w/uyrGlfaenIUhIrNXRI782Q077C+0dybzTwPX8dy6pdk4OrmsvW++IhStwFEH0+269fqPyBa9pXGjlNHcWkL0ns5r8wEScY3Su+aj5p7qOvru6q5Rn0Vxa1r9G9wedz6E9/n+t0tYcr2lead9ne+1IEsro1NYSdYO3GGnDkuX6afYYLvfPYF78bRfeGar+bZ1soag9XtK/0qNlmXdJDsIkdvcHrsrpXLm+SWnSfIgZe277C28Va8vwuNBf+qD30s69wsdad6eYS/oyEtOusnbDFuPAiPvAReVe2rzE2koOjQAf9SCvGFe0r/GHrKShC7iy5qemSBJwgTMll90qDb7isPphqW9e+QhZBvlwxExVcCw2m2la0r3BjrW99YYDZROpB/nmCewOnbghPe2wrf7AyBH1gKfsKD47sXmkVq4lEk6Ha2RXtK/xFq0WEUamxfs8ayE7AI00rKyW8WeONKAL+XdO+gnsD79bkcSjwhsluX3MjfuEdtW37mt1rncSPkP27on3NsZG0DNAqZvLypDa7fe2226F9sReDSuERRrUrRByd1rNvgnvxMKRr0iWWH6xn38VGzf3ZF9/toFI4P6hsPSwlF9ezLw7Ug3EAfqSVMyGp9mU9+y4Ws+7Ovti94TgAiqvuH2jJzixhXxwbhaNYGDtoW4NLCx607xygE/BrJxLFQnHVSRpB3bXsK0T2wUuEd0XfGlxaIVnNvovZbmf2xZFoxL3HmT8Rz+pXsi/OxEbmYPBDhrUnPPHLbl/z8cE7yzzcU9yLBxdDhhwPv+vYFw+EsQwCim8sXsB/lXnfOSBJ4NXGMggo9DWlGOH7fB37JrkXjp6mlVMcXq1n33VX3WacB7QcWnGjL0k0kzetrsN3VD77RoNYuORm2sMFJ7fbr3kQvmarNQ9J7oWPum2Dnnp0W8O+8dUV9FdtNdvwAc1fcWZ96ydbIgNLuRd9kbEgHw1OueyrWBtEoatxBEIPKOt956ASV6ESspQxOrpq//Ly9tWsbNeWv4pBw+GK9pVWqm3jprTeYvvpK6ERVzOKoltl7CKIUm+Z7KsRdIFDMuATsJ59pQK5197rluRDNHRaGwL52Vez+ABmMFYJczeJkrayWIZfqcR5E+W+OvsqmrIscYBPpEnULyvEvorpTJP0qfiFr2hfyXqG4Xd/fR4A8WFm5/ZVhPfg6sypz8z2LbLLDiIqFHCJeXXS077xSEd7dca7/eI9zo7fx4xa71T6DYXEwl/gEvOqoqt9o7VxO7Sve4fJcfDd9Hk6TMLSlNjzuqvRF1o6tn98Afui0ZD9feeAbij0b+R5XSL2BRPllSrOoCyRAQXY1zr7zt9dXd5jp3j0zHtof39n4FyiDN3VG/MFw+fcep3aPzrfvvilGB4ZFsg8oEjS7WyLqH8jZ1uI4WSs9cxwW87A0An4oQ2G3yZL6b9irXJ1OCUJh79gTdsaHmVetniLnCwUvtjUk4UUPUaHlU8WguoGc/vIUsbSJnVRwWqbhYLhL/oi41wEvdU8z3ULXX7iuW7KwyiHdc91g7V9oXclmpUYm2khR61m3w6+4UIPHJoRGHP36E/u+1TNhxum8fyPOdY8VRPHPbXti4zv1kH7FxfZaYxfq4HwF/1V29wNvtP2fqbx+MbftJ/6/OSaZxpjdQPRLLpNpjcEFHfFNiUwexYIf9H7xfaAwoDF/UT5erET5dUtub9v3ponyuPsr6wu0sY0OGXcLPT1L/BuBwIeJKrpAcUT4pXtqzhJpr1dfyx4OPW2w6g/+MokJBy4NN+/shNg9COHv9DuhvgGL3CuaV+cPZPDX2R3S+os+1bN7xurG0sHw4EGT5+9Jx4XNtu/shMMW38/0G9V09ts5Q6TeEH/YPkmS3Iw+0b5bxY+CgnSXtPO5Jnr34AiOGoS9UJu1zfxOOZtU/KFrTEQvB/64Td/m5IflMksF2b6N+QEqK7oSHiT1NGvEKGta1/8whPDX/tizoj8TaKif3oLaLZpJdoXlwZI440Q2ukuQ5ofr3w4AM6vSOEvrkJRvmCkpFIG+0azD56ou+DZ7XuwhL/djKvrpOnu2kez4LjQdN6t7gUjOiiHfRcMf5cfyK0nxejtK/xswSo4xFIFh2J0tvrBWHC2LTxzQvW3JnyTC2ez2Hexc5hP0ZOS7MxZP444AfpKCH+FynzF6CTf3NXti+NC4ZptxzuP/4o8L89j34X8+/FLj8n5NQH9/N5sX/xWF0ZUIQKI+tda1bfoqZr4ocOOTG2cEMqJZrJvUlr2ke8tY5V9ZUPztSvYV1AMh7/SeyVSnREaGDKcaYzzKzj8lTwQ9u8hZJ1M9l3Cv3/j0N0QAp/j6yHpm4iiTsCehG4REzShY8/CZaUZ7Is9iftNiptv+sATGi7DymXf+fHD+BntdNU5bf2ty/EaKqRI7xkRdwJUF8crclgv1idHapty2PdgCH/F1+ZZPKU8smiQz74z/fvwAxUhcD8ZtbrALozk4TfuBDxphumOQH4cFth3sX0lWewr5FegH8WN4/BE7n83L2qZjPYN7NyMAqKpa1i89kkSechObraqcAL+0TC3H8wv9tepg6+Kwrws9hXyKzDiCY0559v0Ko4nxSQ9p33fDqmTLnxuaOjVCcOpSviA+ahEg32FrCxUNzI/aPv6+tG04lrfdOmXPPbFbw0Y/oY2j33qfKs/23Kcpk0OZLLaV72ZRyPDx9eJLxchnJUO8EvN/WqcgLNn5xR1F7lvi9tXyK/02u+bQ177mvbz/BCaeVuT/YJ/UydvKidgU8Lwd2F1M9lXqEiA4e8SCdTxhWe2rzZp8MsQ3HGLw8XAUiseKVKjB50TsCnh71pW3Vz2FfIraNg5LLvsn92+mvnk6BZE9rTjaUMok4C9lFh4pnRCo/6by1bnZbPvUR/+zpi/owvPb1+9geMNGYw7Vt5S9njPty9WF4e/qf4dwAiYzb6WcrLkACnz2RYhjnV8ZtmeotUIMKyMRALwTicGv1on4BAdhr+po9M1W4s++B/xnByGv4n5/yF/k6gQ4cRle9OsJei3h/8B38+JZw2onYAlg2N+mn/7fB0m8V2FwxHO/qb595q9RV+MQ90gL53VvUzhiyj2WXj3LKb9Q+0EoaIcqpvi339hpq99hTkxLn5I8e8tf4dJDU9xsKUFJLoP0YEUDtlpVZN6J+DsGa7stse/H0UUzvYVYtre8H9D9A4NUlU8/hRLZ0U0pY/WP8Ky/7T+64Yvwik+vNcj2p7wgc93tLd9haQfXhE6GZ/Q/q0U+8ar9+EU1vBX/7B8Ec6e4ZSHLTn+9YZ2ty/OrwhZzIPpCe3FC385+8Y/n/YphOWLhJSukHE21OR/l3e421fIr7SGr8Z8t/Oifed8CmH6IqyutJlY26fwt9erv32FKZkUzWm3ff0UDdC+cz6FsH0RjgjErc6qxZ2/yroN2FfIr4gFUZXCwH+dFGnfOZ9C2L5I2DAlr/gdYyNwPwosN2BfIb8SWMSvIo/oebTuWoZ947XnyBNp9q2eCWXgjhUiWG8RWNxppynGw/M3Q9t0lotGVxy6XHAR0nX8XM5dHoIvk2k4vPCXs290/RceNLvWwYULUNXPP3O43Jc/pc6L7nR7fi+d+3jNwD92bV/0bosWP8JVLQfVLByruu6bTy51Xb2OdX+prnX99QObvr5X2mWkXdsXrgXEvgBVl5jPsMzDauKQGDnsCxfaYyduoc+YTxCmfV+cHPbFbd/Cr1Y4153RaYf2fUly2PfN1iH5Azj4zurTR/u+IlnsezObEadpljzomPZ9BbLYFy/EBnqm45X2xGp12vd1yWJfvNlNqJJ+E0vBE7e60b6vSx77CouOwnnJ0kaGreZRvTUsmDz2lXoeD+BrxKY8G02b0b6OaCV6nH0ZkwBiXWz/OKTKDRkXOB6W9n0xNPIcT5fn4PXcWxwc2Ng47pAa6iaa3KGP9n1dFM4TG/YNvT6ECG1LOPf3r4aFwcLSzQ6+tK8fEWViuwlaralmdx3a7uBL+/oRFkaxFeasjCHmtrXb7uBL+/oRkkW5EbFRJbRmHto561xC2vdVkUXRbwMfVOsJxparD39iqzlf2tcVURPTEQGNohph1qFbGy3WoX2dkSQxNlg5K1rvzuh5nH4oFu370giKmI/nHhT+vVq/9Iet1urQvt5gQVKaCypSA4nZs3ajhZK0rztQj7RZlmINI+mLNz1to31dQXIkDpKa+CHBv5qvpX0LBaiRHKJqhknzo7H1yIH29eRZjBkJAs0Uy3hk3GX77qV9/XgWY056VrMV2NQzNvkcY9q3CJ60mHdkpKoETf0nzhtuCkX7boFHKWYe2HtWvesPyrOqdxA40L6uPEqhbEY8921/ii9J91vPl9G+/jzaaqZ79UnaiIH3Y17a15EHJUKeautr9dG/9XQL/S99ecJVXNs7W47d8sdbw4KZCiEPvkM9Hg5D7bYNw2Z37Z+fhOa++XUK2ncrTIUQI9/b43Aon9hhzHV1VX377hjbXOrT3qxL+7oy0UFKO6B2DGJR2kab8K6It4YFM9FBqEho8ZBYCetnmy4tXwNvDQtmooOxFZmwvLzt2vIV8NawYCZ2xMGAPBfDM73iogdvDQtmLANezA3FAjja2MdS73J4a1gwYxlgMiG4Qx2fALyLOpsF8dawYMYywKE0nMaF4cNmW0GuhLeGBTNSAYa+sfYgaPgtLfj11rBgRirAXRaxLBiMfr39lBlvDQtmpEKd4kTY+6mwuZu3hgUzUgHZNx7G0r60rx8jFdIOfkdbf7Z6hspKeGtYMCMV0uyb9qmXwlvDgokYMR4GXGhfbw0LZqRCmn172tdbw4IZqcDgIRFvDQtmthHRpzh1I3kYqYBWIJg4U+CtYcGMVEB53+j674H2pX39GKkAy2+SFo13tU94Pt4aFsxIBbj+G9s6gfbMs2SHZGIsA7IvCybjeGtYMGMZYOvH8PALG5YUljejff0Yy2Df+lObP/GKeGtYMGMZcFv1QNNI4aRMbzvlxlvDgpnosMxG+S2f37oK3hoWzEQHoXOZ4F/pFIENH569Dt4aFsxEB+nYbNhmRzqkYigs60v7OjIVQup8+nzotnxgd3FNdmhfP6ZCyA1Sz5OQ4FjL5wPtqK/0QnhrWDAPSgQaTw/9d/fS6n6R/1eBgy/t68eDErMPByhw8KV9/XiUIn5kShjNyW6vhreGBfMoRTXPveWlHWhfT560SDtN/ofiWlN/4K1hwTxp0c0JH4pbcPvEW8OCeRZjxrmaujM1Xw5vDQsGqJGcfRj2eCzQAnhrWDBIjj7RvkUGvm+0ryNQjzT/Fleq84O3hgWDBUnxb7HupX39EBSx+7dc99K+fkiSGNO/Q8HupX39EDU5DQb3toXmHL7w1rBgZFGOrdq9tzLzvT94a1gwIVnuugH4XNrO4ke8NSyYoC5HxQxuqMseet9oX0ciysQMTPO+0b6ORLU51nINT3uied9oX0c08lxvyMFtXXS6YYS3hgWjVOh4ujV/Hm4v9ZXj7i/eGhaMTahDVVUFbmaL4K0hIYQQQgghhBBCCCGEEEIIIYQQQgghhBBCCCGEEEIIIYQQQgghhBBCCCGEEEIIIYQQQgghhBBCCCGEEEIIIYQQQgghhBBCCCGEEELI/vgfTlR0jUBDGkUAAAAldEVYdGRhdGU6Y3JlYXRlADIwMTctMDQtMDRUMDk6MTY6NTErMDA6MDCHa4BVAAAAJXRFWHRkYXRlOm1vZGlmeQAyMDE3LTA0LTA0VDA5OjE2OjUxKzAwOjAw9jY46QAAAABJRU5ErkJggg==;" parent="1" vertex="1">
          <mxGeometry x="556.9000000000001" y="771.99" width="56.36" height="29.63" as="geometry" />
        </mxCell>
        <mxCell id="cvCOtVNXX8auWttKCjAM-48" value="" style="shape=image;verticalLabelPosition=bottom;labelBackgroundColor=default;verticalAlign=top;aspect=fixed;imageAspect=0;image=https://eventuate.io/i/logo.gif;" parent="1" vertex="1">
          <mxGeometry x="320" y="752.38" width="84.32" height="30" as="geometry" />
        </mxCell>
        <mxCell id="cvCOtVNXX8auWttKCjAM-49" style="edgeStyle=orthogonalEdgeStyle;rounded=0;orthogonalLoop=1;jettySize=auto;html=1;entryX=-0.02;entryY=0.57;entryDx=0;entryDy=0;entryPerimeter=0;" parent="1" source="cvCOtVNXX8auWttKCjAM-33" target="cvCOtVNXX8auWttKCjAM-45" edge="1">
          <mxGeometry relative="1" as="geometry" />
        </mxCell>
        <mxCell id="cvCOtVNXX8auWttKCjAM-50" value="&amp;nbsp;insert&amp;nbsp;" style="edgeLabel;html=1;align=center;verticalAlign=middle;resizable=0;points=[];" parent="cvCOtVNXX8auWttKCjAM-49" vertex="1" connectable="0">
          <mxGeometry x="-0.2479" y="1" relative="1" as="geometry">
            <mxPoint x="7" y="1" as="offset" />
          </mxGeometry>
        </mxCell>
      </root>
    </mxGraphModel>
  </diagram>
</mxfile>
